<?xml version="1.0" encoding="UTF-8"?>
<svg id="Ebene_1" xmlns="http://www.w3.org/2000/svg" version="1.1" viewBox="0 0 600 524.9">
  <!-- Generator: Adobe Illustrator 30.2.1, SVG Export Plug-In . SVG Version: 2.1.1 Build 1)  -->
  <defs>
    <style>
      .st0 {
        fill: #02df82;
      }
    </style>
  </defs>
  <path class="st0" d="M260.5,334.1c-13.3-12.3-15-39.5-6.1-54.2,5.5-9.7,15.5-15.1,26.7-14.3s14,3.7,19.1,9.5v-34.6s23.4,0,23.4,0v99.2s-22.2,0-22.2,0l-.2-8.3c-3.1,3.2-5.7,6.4-9.9,8.1-10.3,4.3-22.5,2.3-30.9-5.5ZM297.8,317.9c4.6-9.1,4.5-20-.3-28.7-2.6-4.8-8.3-6.2-13.4-5.4s-8.3,4.3-10,9.2c-3.8,10.8-1.4,29.7,11.2,30.8,4.7.4,10.1-1.1,12.5-5.8Z"/>
  <path class="st0" d="M437.3,288.9c4,14.9,1.5,36.2-11.4,46.5-8.2,6.6-19.6,8.2-29.3,4.2s-6.7-5-10-8.1v8.1s-22.3,0-22.3,0v-99.2s23.5,0,23.5,0v34.6c9.8-11.3,26.9-12.5,38-4.1s9.6,10.7,11.5,17.9ZM414.5,294.9c-.8-3.2-2.4-6.4-4.9-8.5-3.6-3.1-8.4-3.5-13.1-1.9-11.2,4-11.2,22.6-7,32.4,2.1,5,7.4,7.2,12.5,6.9,13-.7,15-18.6,12.5-29Z"/>
  <path class="st0" d="M94.9,324.7c-1.1-9.9.4-17.9,9.6-22.6s23-4.4,34.7-7.9c2.6-.8,3.5-3.7,3.4-6-.3-7.1-12.3-9.4-18.8-5.5s-3.6,4.4-5,7.2h-21.7c.7-6.2,2.7-12,7.3-16.1,10.4-9.3,30.2-9.2,42.9-6.4,10.5,2.3,17.6,9.9,17.6,20.8v36.8c.1,5.1,1.1,9.6,2.5,14.9h-23.4s-1.4-6.4-1.4-6.4c-9.8,9-27.2,11.2-38.1,5.2-5.2-2.9-8.9-7.6-9.6-13.8ZM141.2,318.3c1-3.8,1.1-7.7,1.3-11.8l-11.1,2.4c-6.6,1.5-13.7,3-13.5,10.4s1.2,5.4,3.8,6.6c6.4,3,17,1.8,19.5-7.6Z"/>
  <path class="st0" d="M244,267.7v72s-22.8,0-22.8,0v-9.7c-8.6,10.7-20.7,14.3-33.7,10.1-5.9-1.9-10.4-6.1-12.6-11.9s-2.6-8.8-2.6-13.6v-47c0,0,23.4,0,23.4,0v43.2c0,3.5,1.4,7.3,4.1,9.4s8.9,3,13.2.7c3.5-1.8,6.7-5.5,7-10.2.5-7.7.5-15.2.5-23v-20.2s23.5,0,23.5,0Z"/>
  <path class="st0" d="M500,320.1c3.5,4.6,8.8,6.2,14.3,5.7s9.6-3,12.4-7.8h21.8c-2.8,8.5-8.1,15.6-16,19.3-18.5,8.8-45.5,5.2-55.3-15-5.6-11.5-5.7-24.8,0-36.3,8.5-17.1,29.4-24.1,47.3-18.6,18.7,5.8,25.6,23.6,25.1,42h-25.4c0,0-27.9,0-27.9,0,.6,3.7,1.3,7.5,3.6,10.6ZM526.2,296.1c-1.6-10-8-15.9-16.8-14.4s-11.1,7.2-13,14.5h29.8Z"/>
  <polygon class="st0" points="355.9 187.2 244 243.2 132.2 187.2 132.2 171.4 244 227.3 355.8 171.5 355.9 187.2"/>
  <path class="st0" d="M239.1,131.5c-21.3-1.5-41.6,4.3-58.6,16.4-7.2,5.1-12.6,11.3-19,17.5,27.6-45.7,84.8-59.4,131.1-34.5,16.1,8.9,29.3,21.9,38.3,38.1l-18.2,9c-15.1-27-42.5-44.3-73.6-46.6Z"/>
  <polygon class="st0" points="468.2 298.9 468.2 339.7 444.7 339.7 444.7 240.6 468.2 240.6 468.2 298.9"/>
  <polygon class="st0" points="355.9 339.7 332.4 339.7 332.4 267.7 355.9 267.7 355.9 339.7"/>
  <path class="st0" d="M257.8,166.9c-13.1-6.2-27.6-7.6-41.6-3.9-11.4,3-20.5,9.3-29.7,17,7.8-12,19.1-20.9,32-26.3,18.7-8,39.6-6.8,57.5,2.8,11.4,6.2,20.7,15,27.5,26.3l-18.1,9c-6.8-11-16.1-19.3-27.5-24.9Z"/>
  <path class="st0" d="M245.8,193.3c-6.5-3.8-13.9-5.3-21.1-3.5s-7.7,3.1-11.9,5c11.3-16.2,30.1-23.2,47.9-13.4,6.3,3.6,11.1,8.2,15.2,14.7l-18,9c-3.4-4.9-7.1-8.7-12.1-11.9Z"/>
  <polygon class="st0" points="355.9 258.4 332.4 258.5 332.4 240.5 355.9 240.5 355.9 258.4"/>
</svg>