<?xml version="1.0" encoding="UTF-8"?>
<svg id="Ebene_1" xmlns="http://www.w3.org/2000/svg" version="1.1" viewBox="0 0 600 524.9">
  <!-- Generator: Adobe Illustrator 30.2.1, SVG Export Plug-In . SVG Version: 2.1.1 Build 1)  -->
  <defs>
    <style>
      .st0 {
        fill: #02df82;
      }
    </style>
  </defs>
  <path class="st0" d="M164.7,314.7h-83.6c-1-.9-1.8-3.6-.7-4.6l11.4-10c.9-.8,1.9-2.3,1.9-3.8v-63.1c0-1.2-.9-2.7-1.8-3.5l-11.8-10.3c-.6-.5-.4-2.8,0-3.3s1.4-1.1,2.1-1.1l80.9.4c9.8,0,17.5,9.3,20.3,17.9s1.3,26.3-10.4,29.6c13.8,4,15.8,19.6,14.2,31.6-1.4,10.5-11.1,20.3-22.6,20.3ZM141.2,255.8c5.9-.4,9.6-5.6,9.3-10.9s-4.5-9.4-9.9-9.4h-12.6s0,20.3,0,20.3c4.5.1,8.7.3,13.2,0ZM141.8,295.4c6.2,0,10.4-5.8,10.2-11.3-.3-5.6-4.9-10.4-10.9-10.5h-13.1s0,21.9,0,21.9h13.8Z"/>
  <path class="st0" d="M468,314.7h-45.5c-3.7-4,3.6-5.8.7-9.3l-22-27.1-.2,20.4c0,1.5.8,3.5,1.6,4.7l7,6.8c.4.4,1.1,1.9,1,2.5s-.8,1.4-1.5,2.1h-47.3c-1.4-1.1-1.5-3.3,0-4.7l5.9-5.6c1.5-1.5,2.6-3.5,2.6-5.8v-51.6c0-1.2-.6-3.5-1.4-4.3l-7.7-7.7c-.5-.5-.7-2.4-.3-3s1.6-1,2.6-1h45.4c.7,0,1.7,1.3,1.6,1.9s-.3,1.9-.8,2.3l-7.5,7.2c-.7,1.2-1.5,3.1-1.5,4.4v23.3c0,0,19.1-23.8,19.1-23.8,1.3-1.6,1.5-3.4,0-5l-6.3-6.6c-.4-.4-.5-2.2-.2-2.7s1.3-1,2.1-1h43.3c.6,0,1.5.5,1.8.8s.2,1.6-.2,2.2l-26.4,35.8,33.8,41.7c.7.9.6,2.4.2,3.2Z"/>
  <path class="st0" d="M274.3,314.7h-84.2c-.6-.6-1.4-1.5-1.6-2.1s.6-2.3,1.2-2.8l8.2-7.5c1.1-1,1.9-2.6,1.9-4.2v-50.5c0-1.9-1-3.4-2.2-4.6l-8.5-7.8c-.6-.5-.7-2.4-.4-3.1s1.6-1.1,2.5-1.1h83s0,25.2,0,25.2c0,.7-.6,1.8-1.1,2.1s-2.2.1-2.7-.3l-7-6.4c-.9-.8-3.5-1.3-4.7-1.3h-27.3s0,13.2,0,13.2h29.6c1.9,0,3.3,1.1,3.3,3v12.2c0,1.4-1.2,2.9-2.7,2.9h-30.2c0,0,0,13.9,0,13.9h26.6c1.2,0,4.1-.3,5.1-1.1l7.4-6.7c.4-.4,2.1-.5,2.6-.3s1.1,1.4,1.1,2v25.3Z"/>
  <path class="st0" d="M354.6,314.7h-49.2c-5,0-10.7-2-15-4.4-8.1-4.6-9.4-17.1-9.4-25.5v-24.1c0-11.2,2-23.9,14-27.6,4.1-1.3,8.5-2.1,12.9-2.1h46.7s0,25.6,0,25.6c0,.6-.7,1.5-1.2,1.7s-2.1.1-2.5-.2l-7-6.4c-.9-.8-3.2-1.4-4.4-1.4h-14c-5.6,0-10.4,4-10.7,10s-.5,16.7,0,25c.3,5.7,4.8,10.1,10.3,10.1h13.6c1.3,0,4-.4,4.9-1.2l7.2-6.5c.5-.4,2-.6,2.5-.3s1.2,1.4,1.2,2v25.3Z"/>
  <path class="st0" d="M510.7,314.7h-38.6c-.5-1.3-.9-3-.9-4.6v-20.2c0-.9,1-2.5,1.8-2.6s2.2.3,2.7.9l6.1,7c4.6,2.2,10,2.2,14.8,1.4s4.8-3.5,4.6-6.2c-.5-7.1-9.3-6-15.9-6.2-11.7-.3-20.1-10.2-19-21.8.9-9.7,8.4-17.8,18.5-17.8h38.1c1.2,0,2.4,1.1,2.4,2.3v18.6c0,.5-.7,1.8-1.2,1.9-2.7.7-4.9-5.1-10.7-5.2h-13.6c-2.2,0-3.8,2.1-3.7,4s1.6,3.5,3.7,3.5h8.5c13.9.3,22.6,13.1,20.8,26.7s-8.3,18.3-18.4,18.3Z"/>
  <path class="st0" d="M465.4,238.9c-.6,0-1.5-.3-1.7-.6s-.5-2,0-2.5l10.1-13.6c.6-.8.8-2.8.3-3.5l-3.8-4.6c-.3-.4-.6-1.9-.3-2.3s1.5-1,2.3-1h29.5c.6,0,1.5.4,1.9.6s.8,2.4.2,3.2c-5.2,7-11.9,16.1-17.8,24.2l-20.5.2Z"/>
</svg>