<?xml version="1.0" encoding="UTF-8"?>
<svg id="Ebene_1" xmlns="http://www.w3.org/2000/svg" version="1.1" viewBox="0 0 600 524.9">
  <!-- Generator: Adobe Illustrator 30.2.1, SVG Export Plug-In . SVG Version: 2.1.1 Build 1)  -->
  <defs>
    <style>
      .st0 {
        fill: #02df82;
      }
    </style>
  </defs>
  <path class="st0" d="M308.6,423.1c-4.9,1.1-23.6-1.1-27.1-.9s-4.2-.3-6.4-1.1-3.3-.2-4.6-.5l-5.2-1.1c-1.8-.4-3.7-.7-5.5-1.2l-3.3-.9c-14.8-4.3-29.1-9.4-42.4-17.4l-7-4.2c-6.4-3.9-16.1-11.5-21.6-16.7l-2.7-2.6-3.4-3.3c-11.8-11.4-24-27.9-31.4-42.5l-3.1-6.1c-.8-1.5-1.7-3.2-2.3-4.7l-3.4-8.8c-1.5-3.8-2.8-7.6-3.9-11.6l-1.5-5.7c-.3-1.1-.7-2.3-.9-3.5l-1.2-6.3-1.2-8.1c-.2-1.2-.8-2.9-.8-4.3,0-3.5-.5-6.7-.7-10.1-.4-6.4-.6-12.8,0-19.2l1.1-12,1-6.6c.4-2.6.8-5.1,1.4-7.6l.9-4.5c.2-1,.7-2.4,1-3.6,6.7-24.8,17.9-46,34.2-65.9,5.2-6.3,14.7-15.6,20.8-20.9s9.2-7.4,13.1-10.1c13.7-9.6,28.4-16.6,44.2-22,2.8-1,5.6-1.6,8.5-2.4l4.8-1.3c1.4-.4,3.2-.9,4.5-1.1l6.2-1c2.6-.4,4.8-.8,7.4-1.3s6.6-.2,9.3-.4,1.7-.9,2.2-.9h20.5c3.8,2,7.2.3,11.8,1.3,6,1.3,4.7.7,10.2,1.8l5.3,1.1,4.6,1.2,5,1.3c14.2,3.8,30.4,11.2,43.1,19.1,14.7,9.1,30.4,22.7,41.4,36.1l2.9,3.5c10.2,12.4,23.9,36.9,28.2,52.3l3.2,11.4c.4,1.4.8,2.8,1.1,4.2l1.3,6.4c.4,2,.7,3.7.7,5.9s.7,2.6.8,3.4l1,11.2c.6,7.1.6,14.4,0,21.6l-.9,11.8c0,1.2-.9,2.8-.9,4.3s-.4,3.5-.7,5.3l-1.3,6.4c-.3,1.3-.6,2.6-1,3.9l-1.5,5.3c-5,18.4-13.6,35.5-24.5,51.2s-8.2,11.1-12.1,15.2-4.7,5.3-7.3,7.6l-10.4,9.6-3.3,2.6c-16,12.9-40.1,26.1-59.7,31l-5.2,1.3c-1.4.3-2.9.9-4.4,1.2l-6.1,1.2c-1.2.2-2.6.6-3.9.7-2,0-3.4.6-5.2,1-3.2.7-6.8-.2-10.1.5l-3.6.8ZM309.9,416.5c3.4-1,6.6,0,9.7-.4l5.8-.8c1.3-.2,2.9-.7,4.2-.9l5.8-1.1c2.2-.4,4.4-.8,6.6-1.5l7.9-2.4c4.9-1.5,9.7-3.1,14.3-5.2l10.8-5.1c9.6-4.5,18.3-10,26.4-16.7l5-4.1c2.5-2.1,4.9-4,7.2-6.3,3.9-3.9,7.9-7.7,11.4-12l4.8-5.8c1.2-1.4,2.5-3,3.5-4.5l5-7.4,4.3-6.8c.7-1.1,1.3-2.2,1.9-3.4l2.2-4.2c2.6-4.9,7.5-15.9,9.1-21l3.2-10,1.2-4.1c.4-1.5.7-3.1,1-4.7l1.3-6.8c.3-1.4.8-2.8.8-4.4s.6-2.8.7-3.9l1-13.1c.4-5.3.4-10.6,0-15.9l-1-13.2c0-1.3-.7-2.9-.7-4.3s-.5-3-.8-4.4l-1.3-6.2-1.1-5.2c-.3-1.6-.8-2.9-1.3-4.5-5.9-20.1-15.2-38.7-28-55.3s-16.9-19.3-24.7-25.7c-19.4-15.9-40.8-27.5-65.1-33.5l-5.3-1.3-5.8-1c-1.9-.3-3.6-1.3-5.9-1s-2.7-.6-4-.8c-5.7-.7-8.7.6-12.4-1.2h-15.7c-.4,0-1.7.8-2.2.9-2.9.2-7.2-.1-10.1.4s-2.9.8-4.5.7-3.6.7-5.4,1l-5.7,1.1c-2,.4-3.6.8-5.5,1.2-19.8,5.1-38.4,13.6-54.9,25.7-3.8,2.8-7.1,5.2-10.6,8.2l-4,3.4-3.1,3-2.9,2.9-2.6,2.7-3.8,4c-1.2,1.2-2.2,2.5-3.3,3.9l-5,6c-2.4,2.8-4.2,5.8-6.2,8.8l-2.5,3.8c-8.8,13.7-15.4,29.4-19.6,45.1l-1.1,4-1.1,5.3-1.3,6.1c-.5,2.4-.8,4.9-1,7.2l-1,11.8c-.4,5.3-.4,10.7,0,16l1,13.1c0,1.2.9,2.9.7,4.3s.6,3.5.9,5.2l1.2,6.4c.2,1.3.6,2.5.9,3.7,6,22.2,15.3,43.4,30.1,61.5l5.6,6.8c4.2,5.1,13.3,13.7,18.4,18,18,15.4,38.2,25.8,60.8,32.4l4.2,1.2,5.9,1.3c1.3.3,2.5.6,3.9.6s2.7.7,3.8.9l8,1.2c5.2.8,8.8-.5,12.2,1.3h14.3s3-.9,3-.9Z"/>
  <path class="st0" d="M320.9,409l-11.8,1c-6.1.5-12,.5-18.2,0l-11.8-.9c-1.4-.1-7.1-1.1-8.7-1.5l-5.9-1.3-4.7-1.1c-10.3-2.3-27.5-9.6-37-14.9l-3.4-1.9c-11-6.2-28.3-19.9-36.3-29.4l-4.6-5.5c-9.4-11.1-15.6-21.2-22-34.2-1.9-3.8-3.5-7.7-4.9-11.8l-3.3-9.7c-.4-1.1-.7-2.5-1-3.8l-1.2-4.3-1-4.8-1.1-5.3c-.4-1.9-.3-4.2-.8-6.1s-1-3.4-.8-5.3c.2-2.9-.4-5.4-.7-8.2-.5-5.4-.2-10.8-.2-16.3s.7-2.2.8-2.9c.3-3-.2-6.2.4-9.1s.9-4.6,1.3-7.2l1-5.7c.3-1.5.7-3.3,1.1-4.8l1.2-4.4c.8-2.9,1.6-5.7,2.6-8.4l1.8-5.1c6.9-19.7,22.2-42.8,37.3-57.5,16.7-16.2,45.7-34.6,67.6-39.3l3.7-.8c1.5-.3,2.9-1,4.4-1.3l5.7-1.1c1.4-.3,2.8-.7,4.4-.7s3.4-.6,5.3-1c5-1,8.8.5,12.7-1.4h14.5c.6,0,2.1.8,2.8.9,2.8.2,6.8-.2,9.8.5s3.3,1,5.3,1,3,.4,4.4.7l5.8,1.1c1.6.3,3.2.9,4.7,1.3l4.4,1.1c21.2,5.4,40.5,16.2,57.2,30.6l4.6,4c3.6,3.1,6.7,6.3,9.9,9.8,16.7,18.1,28.9,39.5,35.9,63.1s1,3,1.4,4.7l.9,4,1.2,6c.3,1.3,1.2,2.9,1,4.5s.6,3.6.7,5.2l1,12.6c1.1,14-.9,17.1-.7,25.4s-.6,3.1-.8,4.9l-.5,4.6c-.2,2.1-1,3.7-1.4,5.8l-1,4.8c-.3,1.3-.7,3-1.1,4.3l-1.2,3.9-1.2,3.7-2,5.6c-4,11.4-13.3,29.3-20.9,38.7l-6.1,7.6-6,7.1c-2.8,3.3-8,8-11.5,10.9l-5.5,4.6c-4.2,3.5-10.9,8.2-15.5,10.9l-5.1,3c-8.5,5-28,13.2-37.2,15.2l-5.2,1.1-5.9,1.3c-1.7.4-6.5,1.3-8.6,1.4ZM324.8,143.3v-41c0,0-13,0-13,0-.8,2.6-1.5,4.2-2.3,6.3l-3.3,8.7-2.5,6.6-1.1,2.9c-.6,1.6-.7,3-2.2,3.8l-4.1-10.4-1.1-3.1-2.7-7.2c-1-2.6-2-5.3-3.2-7.8h-12.1c0,0,0,41.2,0,41.2h8s.1-26.9.1-26.9c2,3.5,3,6.5,4.2,9.9l1,2.8,3.3,8.6,2.1,5.6h9.2c2.2-3.7,3-6.8,4.7-11.4l2.9-7.7c.9-2.5,1.8-4.6,3.1-7.4l.3,26.6,8.7-.2ZM399.5,195.8l18.8-9,8.5-4.1c1.9-.9,3.6-2,5.7-3.1l-6.4-7.9-10.6,5.1-9.5,4.5c-1.2.6-2.2,1.1-3.5.8l6.1-8.3,8.9-12.6-3.8-4.8-3.1-3.9-12.6,5.3c-4,1.7-7.5,3.4-11.7,4.8,1.6-2.9,3.1-4.4,4.7-6.5l10.8-14.2-6.5-8.1-3.5,4.4-4.2,5.5-4,5.1-5.9,7.6-4.4,5.6c-1.1,1.4-2,2.6-3.4,4s-.4,2.1.3,3l5,6c.8,1,1.9,1.7,3.1,1.2l6.5-2.6,8.2-3.4,5.8-2.4c.4-.2.9-.3,1.2-.4s.1,1.2,0,1.5l-8.3,12.2-2.3,3.5-2.9,4.3,4.2,5.2,3.3,4.1c1.9-.6,3.5-1.7,5.2-2.5ZM201.8,196.1c.5.4,1.8,1.4,2.1,1l1.3-1.5,6.6-7.7,14-16.8c2.2-2.6,4.6-7.9,3.1-11.5-1.5-2.9-3.9-6-7.1-6.9-3.9-1.1-6.9.2-8.9.6s.1-1.4.1-1.9c0-4.5-3.5-8.9-7.7-10.9-6.1-2.9-12.2,4.7-15.5,8.6l-3.1,3.6-4.1,4.9-7.2,8.6-2.9,3.4c-.3.3-.5,1.5-.2,1.7l1.1.8c2,1.4,3.8,3.2,5.7,4.8l8.4,6.9,4.4,3.7,4.5,3.8,5.5,4.8ZM315.1,352l5.3-1c1.7-.3,3.8-.7,5.5-1.2l4.1-1.1c8.5-2.4,19.4-7.8,26.8-12.9,5.6-3.8,15.2-11.6,19.2-16.7l3.8-4.9c8-10.3,13.7-20.4,17.2-33.1l1.1-3.8c.5-1.7.9-3.6,1.2-5.3l1-5.3c.4-2.4.2-5.5.3-8l1-2v-9.6c-.2-.4-.8-1.5-1-2,0-2.6.1-5.6-.3-8.1l-1-5.3c-.3-1.8-.8-3.8-1.3-5.6l-.9-3.1c-5.1-18.1-17.1-36.8-31.8-48.7s-12.8-9.5-22.2-14.2-14.6-5.9-19.7-6.9l-5.3-1c-2.9-.6-5.6-.9-8.7-.9s-6.5-2.3-13.8-.9-3.1.8-4.8.9c-4.2,0-10.2,1-14,2l-3.8,1c-3.8,1-7.6,2.1-11.1,3.7l-4.4,2.1c-7.4,3.5-14.4,7.6-20.7,12.9l-3.4,2.8c-6.5,5.4-11.6,11.7-16.5,18.6-5.5,7.8-9.6,16.5-12.8,25.5s-.8,3.1-1.3,4.6l-1.2,4.2c-.9,3.1-2,10.2-1.9,13.7s-.5,3.2-.8,4.9c-1.4,7.8.9,10.5.8,14.3s1.1,11.1,2,14l1.1,3.8c.4,1.4.7,2.8,1.2,4.2,3.9,11.3,9.4,21.8,16.9,31.1l3,3.7c4.7,5.9,10.6,10.5,16.5,15.1s21.3,12.7,30.3,15.2l3.9,1.1c1.6.4,3.5.9,5.1,1.2l5.4,1,8.4.8c4.3.4,8.1,1.3,12.3.2s6.3-.4,9.3-.9Z"/>
  <path class="st0" d="M309.7,346.1c-3,.9-6.3.6-9.6.5v-94.7s-94.8,0-94.8,0v-9.2c2-3.5.3-3.5,2.1-10.6l1.1-4.2c1.7-6.8,4.2-13,7.4-19.2,1.3-2.4,2.5-4.8,3.9-7.1l1.9-3c.7-1.1,1.6-2.4,2.4-3.4l4.5-5.6c2.9-3.7,6.4-6.9,10-9.9,10.7-9,22-15.1,35.3-18.9l4.3-1.2c7.6-2.2,8.2-.4,13.4-2.7h8.5c0,.1,0,95,0,95h94.6s0,9.4,0,9.4c-1.6,2.1-.6,3.3-1.7,8.9l-1.3,6.3c-.3,1.3-.7,2.5-1.2,3.8-3.1,9.5-8.6,20.7-14.5,28.2l-4.3,5.4c-10.5,13.2-31.6,26.1-47.9,29.8l-4.8,1.1c-7.5,1.7-3.6-.2-9.3,1.4Z"/>
  <path class="st0" d="M205.3,184.7l-5.4-4.6-2.5-2.2,6.1-7.5,5.3-6.3c1.3-1.5,2.6-2.8,4.7-3.2s3.7,1.3,4.9,2.9.7,4.8-1,6.6-3.7,4.2-5.5,6.3l-6.6,7.9Z"/>
  <path class="st0" d="M191.9,173.4l-7.6-6.4,3.3-4.2,3-3.2c2.4-2.6,4.1-6.2,7.3-7.8s6.9,1.1,7.1,4.3-1.6,3.7-2.8,5.1l-4.6,5.5-5.8,6.8Z"/>
</svg>