<?xml version="1.0" encoding="UTF-8"?>
<svg id="Ebene_1" xmlns="http://www.w3.org/2000/svg" version="1.1" viewBox="0 0 600 524.9">
  <!-- Generator: Adobe Illustrator 30.2.1, SVG Export Plug-In . SVG Version: 2.1.1 Build 1)  -->
  <defs>
    <style>
      .st0 {
        fill: #02df82;
      }
    </style>
  </defs>
  <path class="st0" d="M316.7,357.2c46.8-4.5,82.6-36.6,101.3-78.8l25.3,13.7c-8.8,20.9-22.2,38.9-38.8,53.9-30.9,27.7-70.1,40.1-111.4,37.2-40.7-2.9-78-22.4-103.8-54-26.4-32.3-38.6-74.5-33.1-115.9,5.8-44.6,31.8-84.4,69.9-108,21.3-13.1,45.3-20.4,70.3-21.9,16.7-.8,33.3.2,49,5.5-30.1-5.5-60.5-3.1-88.6,8.2-40.1,16.2-70.1,49.9-81.2,91.8-10.6,39.8-4.7,84.2,20.1,117.6v22.5c0,0,14.6-6.1,14.6-6.1,28.1,26.5,68,38.1,106.3,34.4Z"/>
  <path class="st0" d="M404.3,267.9c-.6-.6-2.3-1-3.5-.7-39.1,9.5-77.5,21.1-115.6,34.4-12.9,4.5-25.3,9.3-37.8,14.5-1.8.8-2.9,2.9-1.6,4.7,4.8,7,17.8,11.9,26.3,14.2,21.9,5.8,44.3,5.1,65.7-1.3,24.2-7.3,45.5-20.8,58.8-42.4,2.4-4,11.2-20,7.7-23.3ZM391,284.3c-7.9,17-23.1,32.4-41.3,39.5,15.8-10.5,27.8-24.8,34.4-42.5.7-1.9,3.7-2.4,5-1.9,1.7.6,2.9,2.9,1.9,5Z"/>
  <path class="st0" d="M378.2,122.5c-6.6-9.5-18.4-15.8-29.2-19.2-24.3-7.7-51.3-6.1-75.4,1.5-25.9,8.2-47.6,26.7-56.7,52.6-.9,2.6-3.1,9.3-1.3,11,.4.4,1.9.6,2.6.4l65.8-20.8c30.5-9.6,61.3-15.5,92.4-21,1.1-.2,2.2-1.1,2.3-1.9.1-.6,0-2.2-.4-2.7ZM237.8,141.3c-2.4,4.5-4.1,9-5.4,14.1-.5,1.3-1.7,2.1-2.9,2-1.2-.1-2.5-1.5-2.3-3,2.2-15,20.7-35,34.6-41.3-9.9,8-18.3,16.9-24.1,28.2ZM357,120.8c-1.3,4.2-10.6,5.4-15.4,6.4,1.5-1.4,3-2.7,4.1-4.3,1.9-2.9,1.1-6.1-1.1-8.5-2.9-3-6.5-5.1-10.4-6.8-7.5-3.2-15.2-4.5-23.5-5.7,12.5-1.1,37.2,3.3,45.4,14,1,1.3,1.3,3.4.9,4.9Z"/>
  <path class="st0" d="M307.6,284.4l-12.9,4.4v-74.1c0,0,12.6-3.9,12.6-3.9,3.6-.4,7.4-.3,10.1,2.4,7.3,7.6,13.8,15.5,20.7,23.8l.2-24.9c0-5.4,3.6-9.5,8.4-11.2l11.9-2.9v64.5c0,5.6-4.2,10-9.4,10.9-4.7,1.1-8.8-.5-11.8-4l-21.6-24.9v27.9c0,5.4-3.3,9.6-8.1,12Z"/>
  <path class="st0" d="M221.5,283.5l-.4,25.9c0,3.7-2.5,6.7-5.7,8.1l-16.5,6.8v-73.9c0,0,22.5-9.3,22.5-9.3l.2,25.8,19-32.1c1.8-3.1,5.4-4.7,8.6-4.8s7.3,1.5,9.4,4.6,1.8,7.2-.3,10.4l-16.3,25.8,16.4,16.8c3,3.1,2.7,8.5.9,12.1s-5.5,5.7-9,6.2-8.1-.7-10.9-3.6l-17.8-18.7Z"/>
  <path class="st0" d="M400.9,233.4c-2.9.5-5.6-2.2-5.6-5.1v-9s31.3-6.8,31.3-6.8c.2,9.3.3,18.4,0,27.6s-3.5,10.8-8.3,14.3c-9.7,6.5-21.7,9.3-33.2,7.2s-19.8-10.2-22.2-21.5c-1.8-8.7-1.2-17.6,1.6-26,7.5-22.5,33.2-32.1,54.9-25.9,5.5,1.6,8.4,6.2,7.2,11.7-1.1,4.9-5.5,7.9-10.5,6.5s-11.7-1.8-17.6-.1c-13.1,3.7-17,18.7-12.8,30,1.8,4.8,6.2,7.5,11.4,7s7.2-.8,9.1-3.8.4-5,.4-7l-5.8.9Z"/>
  <path class="st0" d="M279.3,294.1l-14.9,5.5v-65c.1-6.3,4.1-11.4,9.6-13.5,4.6-1.8,9-3.1,13.9-4.6v65.1c-.5,5.8-3.3,10-8.6,12.5Z"/>
  <path class="st0" d="M223.7,216.4c2.5,10.3-5.4,17.9-13.8,21.5l-22.6,9.6v-53.9c0,0,16.1-6.5,16.1-6.5,3.3-1.3,6.9-1.8,10.5-1.5,4.6.7,7.9,4,8.4,8.6.6,5.7-2,10.8-6.7,14.7,3.7,1.3,7.1,3.3,8.1,7.5ZM201,209c3.8-1,6.7-3.3,7.5-7.1s.1-4-1.6-4.9-4.7-.4-5.9,1v10.9ZM206.9,227.4c2.9-2.4,4-7,1.5-9.9s-5.6-1.4-7.3.3v12.6c2.2-.7,4-1.5,5.8-3Z"/>
  <path class="st0" d="M329.2,179.5c-2.1.4-4.6-.2-4.8-2.7s-.1-4.2,0-6.6l20-4.5v19.5c0,10.9-15.6,15.3-24.3,14.7s-13.7-5.5-15.9-12.8c-4.6-15.6,2.4-34.6,20.3-38.6s18.2-2.3,19.5,4.5c.5,2.9-.1,5.7-2.8,7.1s-4.6.7-6.8.4c-6.6-1-12.7,2-15.2,8.2s-2.3,9.7-.8,14.3,4.4,5.7,8.3,5.1,4.4-.9,4.7-2.6.3-4,.3-6.3l-2.5.4Z"/>
  <path class="st0" d="M301.6,195.7l-8.9-8.7c4.9-4,8-9,8.4-15.2.3-5.7-2.8-10.4-8.4-11.7-3.6-.7-7.4-.5-11,.7l-16,5v50.6s8.8-3.1,8.8-3.1c3.2-1.1,4.7-4.3,4.7-7.4v-12.5c.1,0,12.5,12.5,12.5,12.5,2.8,2.8,7.5,1.8,9.8-.7,2.2-2.3,2.7-6.8,0-9.4ZM279.3,185.3v-13.7c2.1-1.1,4.9-1.5,6.6,0,3.7,3.5-1.3,11.6-6.6,13.7Z"/>
  <path class="st0" d="M225.3,179.1c3.7-1.3,9.5-4.5,12.2-2s1.5,2.4,1.5,3.7v29.3c.1.9,1.1,2.3,1.7,2.8s2.6.6,3.7.2c2.4-.9,4-3.6,4-6.4v-35.4c3.5-1.2,8.9-4,11.9-1.9s1.7,2.4,1.7,3.8l-.2,32.1c0,13.1-11.6,20.8-23.8,21.1s-12.3-4.7-12.4-11.6l-.2-35.7Z"/>
  <path class="st0" d="M415.5,170.7l-8.7-9.9c4.5-3.1,7.4-7,8.1-12,.8-5.9-2.1-11.3-7.8-13.3-3.1-1.1-6.6-1.3-9.9-.7l-16.8,2.9v48.4s7.6-1.4,7.6-1.4c3.2-.6,5.5-3.2,5.6-6.5l.2-11.9,11.2,13c1.6,1.9,4,2.7,6.4,2.4,1.8-.2,4.1-1.5,5.1-3.5,1.3-2.4.9-5.4-.9-7.4ZM400.8,151.2c-1.2,3.6-4,5.7-7.4,6.9v-12.9c2-.4,4.1-.7,5.7,0,2.1,1,2.5,3.7,1.7,5.9Z"/>
  <path class="st0" d="M372.5,166.9l-11.4,2.5v9.4s16-3.4,16-3.4v7.4c-.7,2.2-2,3.9-4.3,4.5l-25.4,5.8v-49.1c.1,0,29.2-5.9,29.2-5.9v6.8c-.2,2.5-1.7,4.1-4.1,4.7l-11.4,2.4v7.5s14.3-2.9,14.3-2.9v6.6c0,1.2-1.5,3.5-2.9,3.8Z"/>
</svg>