<?xml version="1.0" encoding="UTF-8"?>
<svg id="Ebene_1" xmlns="http://www.w3.org/2000/svg" version="1.1" viewBox="0 0 600 524.9">
  <!-- Generator: Adobe Illustrator 30.2.1, SVG Export Plug-In . SVG Version: 2.1.1 Build 1)  -->
  <defs>
    <style>
      .st0 {
        fill: #02df82;
      }
    </style>
  </defs>
  <path class="st0" d="M356.6,311.6c-27.3,22.8-63.3,28.1-95.1,11.7s-42.8-36-53-61.8c-8.5-21.5-11.6-44.1-10.1-67.2,1.6-25.2,9.2-49.5,23.1-70.5,9.2-14,21-25.8,35.3-34.3,24.8-14.7,54.7-16.1,80.5-3.4,25.4,12.5,43.9,35.8,54.4,61.8,16.3,40.6,14.2,88.9-6.2,127.7-7.3,13.9-16.9,26-28.9,35.9ZM390.2,200.7c-.6-33-13.2-66.3-36.8-88.8-22-21-52.7-28.7-81.2-16.5-39.9,17-61.3,63.5-61.9,105.4l90-67.2,90,67.1ZM383.5,249.1c2.3-7.1,3.7-13.4,4.5-20l-87.8-65.3-87.8,65.4c1.1,7.1,2.3,13.6,4.6,20l83.2-62.1,83.3,62.2ZM328.4,314.8c9.9-4.2,18.1-9.9,25.7-17.2,7.9-7.6,14.3-16.2,19.8-26.2l-73.7-54.8-73.6,54.8c4.3,8.3,9.8,15.7,16.1,22.6,22.5,23.8,54.2,34,85.6,20.8Z"/>
  <polygon class="st0" points="412.1 399.7 382.4 399.7 382.4 407.3 416.2 407.3 416.3 413.9 374.7 413.9 374.7 379.5 416.2 379.5 416.3 386.2 382.5 386.2 382.5 393.3 412 393.3 412.1 399.7"/>
  <path class="st0" d="M350,414.1c-7,.9-13.9.9-20.6.1-9.6-1.1-15.9-8.5-15.7-18,.2-8.9,6.4-16.1,15.4-17.1s13.9-.9,20.6.1c9.7,1.4,16,9.4,15.1,19-.8,8.1-6.3,14.8-14.9,15.9ZM348,407.4c4.8-.6,7.6-4.2,8.5-8.4,1.4-6.6-2.7-12.7-9.6-13.4-5.1-.5-10.2-.5-15.2,0-6,.6-9.8,5.4-9.8,11.3,0,5.9,4.1,10.5,10.1,10.9s10.6.5,16-.3Z"/>
  <path class="st0" d="M295.1,413.7l-22.7-16.5c-.5-.4-.8-1.8-.4-2.5h20.3c2.3-.1,4-1.7,4.3-3.7s-.6-4.8-3.1-4.8h-28.1s0,27.6,0,27.6h-7.6c0,0,0-34.3,0-34.3h35.8c2.9,0,5.6,1.2,7.8,2.6,2.5,2.2,3.3,5.1,3.3,8.4s-2.3,8-6.7,8.9-6.9.8-10.7.9l18.9,13.1c-3.8.4-7.2.4-11.1.2Z"/>
  <path class="st0" d="M464.4,396c.2-5.5-3.9-9.8-9.2-9.8h-20.7c0,0,0,27.7,0,27.7h-7.6c0,0,0-34.4,0-34.4h30.6c8.8.2,14.8,7.3,14.7,15.8v18.5c0,0-7.8,0-7.8,0v-17.9Z"/>
  <path class="st0" d="M174.1,407.1v6.6c0,0-10.5.2-10.5.2-6.9.1-13.6.2-20.4-.5s-11.2-4.4-13.5-9.9c-2.2-5.2-1.7-11.4,1.4-16,3.1-4.7,8.7-7.6,14.3-7.6l28.7-.2v6.5s-26.9.1-26.9.1c-6,0-10.6,4.4-10.8,10.1-.2,5.7,4.1,10.7,10.3,10.7h27.3Z"/>
  <polygon class="st0" points="229.9 413.6 222.2 413.7 222.2 385.9 202.9 385.8 203 379.3 249 379.4 249 385.8 229.8 385.9 229.9 413.6"/>
  <path class="st0" d="M194.3,413.7c-2.9.1-5.1,0-7.7-.1v-34.2s7.7,0,7.7,0v34.3Z"/>
  <path class="st0" d="M410.1,375.4h-10.2c-1.3,0-2.5-.8-2.8-1.9s.4-3.1,1.8-3.1c4.4-.1,8.2-.1,12.6,0s1.8,2.2,1.6,3.1-1.6,1.9-3,1.9Z"/>
  <path class="st0" d="M392.2,375.3h-11.9c-1,.2-2.3-1-2.5-1.8s.4-3,1.6-3.1c4.3-.2,8.7-.2,12.9,0s1.4,1.5,1.5,2.1-.8,2.7-1.7,2.7Z"/>
</svg>