<?xml version="1.0" encoding="UTF-8"?>
<svg id="Ebene_1" xmlns="http://www.w3.org/2000/svg" version="1.1" viewBox="0 0 600 524.9">
  <!-- Generator: Adobe Illustrator 30.2.1, SVG Export Plug-In . SVG Version: 2.1.1 Build 1)  -->
  <defs>
    <style>
      .st0 {
        fill: #02df82;
      }
    </style>
  </defs>
  <path class="st0" d="M472.1,411.7l-344-.2c-20,0-35.8-18-35.9-37.3v-208.1c0-20.1,16.4-37.7,36.9-37.7h342.2c20.1,0,36.6,17.4,36.6,37.2v208.6c0,19.9-15.8,36.5-35.9,37.6ZM469.6,382.7c5.5,0,9-3.5,9.4-8.7v-207.9c0-4.7-3.8-8.8-8.6-8.8H130.6c-4.7,0-9.2,3.2-9.2,8.3v209c0,4.6,4.4,8.1,8.8,8.1h339.5Z"/>
  <path class="st0" d="M420.5,267.1c4.6,2,8.6,3.7,12.6,6.3,22.3,14.7,27.5,43.5,15,66.4-8.3,15-23.2,24-40.5,24.8h-91.8s0-190.5,0-190.5h88.5c15.5.9,28.9,8.4,37.3,21.3,13.9,21.7,10,50.4-11.5,65.7-3.1,2.2-6.2,3.9-9.5,5.9ZM375.8,249.7c13.4,0,24.2-9.5,24.7-22.6.5-12.7-9.7-24-22.8-24h-19s0,46.4,0,46.4h17.1ZM381.6,330.9c12.8,0,22.4-11,22.4-23.1,0-12.2-9.6-23.1-22.2-23.2h-23.1c0,0,0,46.3,0,46.3h22.9Z"/>
  <path class="st0" d="M287,321c-9,25.5-32.7,43.5-59.8,43.5h-76.3c0,.1,0-190.4,0-190.4h73.4c30.1,0,55.8,21,62.8,50,10,31.4,10.1,65-.1,96.8ZM247.1,239.6l-3-9.8c-4.3-14.1-17.3-24.3-32.2-24.3h-18s0,127.7,0,127.7h18.6c14.7,0,27.5-9.2,32.6-22.9,8.4-22.8,9.2-47.3,2-70.8Z"/>
</svg>