<?xml version="1.0" encoding="UTF-8"?>
<svg id="Ebene_1" xmlns="http://www.w3.org/2000/svg" version="1.1" viewBox="0 0 600 524.9">
  <!-- Generator: Adobe Illustrator 30.2.1, SVG Export Plug-In . SVG Version: 2.1.1 Build 1)  -->
  <defs>
    <style>
      .st0 {
        fill: #02df82;
      }
    </style>
  </defs>
  <path class="st0" d="M510.2,257.7c-4-6.6-9.3-11.9-15.5-16.7-33.4-25.6-93.4-37.6-134.8-42.1-46.8-5.1-93.9-4.9-140.6.8-40,4.9-98.5,17.4-130,43.1-5.3,4.4-9.8,9.2-13.3,15-5.8,9.7-5.9,21.1-.3,30.9,13.8,24.2,53.1,38.7,78.8,46,65.7,18.6,147.5,21.2,215.4,12.5,21.9-3,43.1-7,63.9-13,25.2-7.4,63.4-21.8,76.9-45.6,5.6-9.9,5.3-21.2-.5-31ZM507.2,289.6c-14.5,23.3-52.9,37.2-78.5,44.3-21.1,5.8-42.4,9.7-64.5,12.5-65.5,7.8-142.7,5.1-206.1-12.3-25.8-7.1-65.6-21.4-79.9-45.2-10.3-17.2-1.1-33.5,12.7-44.8,30.3-24.9,86.6-37.3,125.1-42.3,48.8-6.4,98.2-6.6,147.1-.9,39.9,4.7,98.4,16.8,130.3,41.9,5.8,4.6,10.7,9.6,14.3,15.9,5.7,9.8,5.5,21.2-.6,30.8Z"/>
  <path class="st0" d="M416.1,324.6c-71.7,19.8-170.4,19.9-242.4,1.1-23.4-6.1-59.1-18.4-72.8-39.4-5.8-8.9-6-19.5-.4-28.5s8-10,13.3-14c29.9-22.5,83.6-32.9,120.4-36.8,56.6-6,122.2-3.7,177.5,10.7,23.5,6.1,60.9,18.9,73.9,40.6,5.1,8.4,5.1,18.3.1,26.8-12.3,20.8-47.2,33.4-69.6,39.6ZM410.9,320.9c21.7-5.8,55.2-16.7,68-36,9.6-14.4.9-28.1-11.1-37.2-28.5-21.5-81.9-31.3-117.1-34.9-40.5-4.1-81-4-121.5.6-33.9,3.8-84.6,13.7-111.9,34.5-11.6,8.8-20.2,22.1-11.4,36.2,11.6,18.7,43.8,30,64.3,35.6,70.7,19.3,169.5,19.4,240.7,1.2Z"/>
  <path class="st0" d="M78,270.4c2,4.5,8.3,1.7,8.8,4.5l1.1,6.3c5.9,11.7,15.2,21.1,26.8,27.3,28.3,15.1,55.2,21.9,86.5,27.9,63,11.9,129.6,11,192.4-1.6,13.6-2.7,26.7-5.4,40-9.5,13.1-4,25.6-8.5,37.6-15.2,11-6.2,19.2-16,25.2-26.8,2.4-4.4,3.1-8.9,3.6-13.8,3.4-2.2,6.6,1.4,8.1-3.7,4.4,7.9.5,16.7-4.7,22.9-12.4,15-28.5,23.3-46.4,30.4-31.3,12.4-62.8,18.5-96.1,23.3-24.9,3.6-49.7,5.2-74.9,4.8-44.5-.7-88.5-7-131.4-18.7-11.7-3.2-22.7-7.1-33.6-12.2-15.8-7.4-34.5-20.5-42.1-36.5-1.4-2.9-2.1-6.2-.8-9.2Z"/>
  <path class="st0" d="M457.1,313.4l14.6-9c6.8-4.7,11.9-10.5,16-17.6,3.1-5.2,5.6-10.3,5.4-16.7l3.7-.3c.8,9.1-7.9,21.8-14,27.9-7.2,7.2-16,12.4-25.7,15.6Z"/>
  <path class="st0" d="M111.1,301.7l11.3,7.7c-12.7-4.4-32-20-33.1-35.1l3.4.5c1.4,10.1,10.1,21.2,18.4,26.9Z"/>
  <path class="st0" d="M462,249.3c-26.8-18.8-76-27.7-108.5-31.1-41.2-4.3-82.4-4.3-123.6.2-32.2,3.5-79.6,12.3-106.3,30.8-11.2,7.8-20.8,20.3-12.1,33.7,11.3,17.5,43.3,27.9,62.9,32.9,69.4,17.8,167.8,17.8,237.1-.1,19.4-5,51.3-15.4,62.5-32.9,8.6-13.4-.9-25.7-12-33.5ZM224.7,294.5c-1,1-2.1,2-3.2,2.9-1,.8-2,1.6-3,2.4-.3.2-.7.5-1,.7-.7.5-1.4.9-2.1,1.4-.8.5-1.5.9-2.3,1.4-.7.4-1.3.7-2,1-.8.4-1.7.7-2.5,1-2.1.8-4.4,1.4-6.7,1.7-7.9,1.1-15.5-.8-21.5-5.8-1.3-1.1-2.3-2.2-3.2-3.5-.7-1-1.2-2-1.7-3-.3-.8-.6-1.6-.8-2.4-.1-.5-.2-1.1-.3-1.6-.1-.9-.2-1.8-.2-2.7,0,0,0,0,0,0,0-3,.9-6,2.7-8.8.5-.8,1-1.5,1.5-2.1,1.8-2.3,3.7-4.2,5.7-5.6.8-.6,1.7-1.1,2.5-1.6,2-1.1,3.9-1.7,5.6-2,.7-.1,1.3-.2,1.9-.1,0,0,0,0,0,0,2.1,0,3.5.8,3.8,2,0,.2,0,.5-.1.8-.2.5-.6,1-.9,1.2l-6.6,4.6c-3.1,2.1-5.1,5.8-5,9.5,0,.9.2,1.7.4,2.6.6,2,2.1,3.4,3.8,4.4.8.5,1.7.9,2.6,1.2,7.3,2.4,15.3-.8,22.1-5.4.3-.2.6-.4,1-.7,3.2-2.3,6-4.8,8.4-7.2,1.3-1.3,2.6-2.6,3.8-4,3.7-4,7.2-8.2,10.9-12.6-2.7,0-5.4.4-8,1.2-1.9.6-3.8,1.4-5.5,2.3-.6.3-1.1.6-1.7,1-.6,0-1.7-.7-1.8-1.2-.2-1.8,1.3-3.2,3.5-4.3.2-.1.4-.2.6-.3.5-.2,1.1-.5,1.7-.7.9-.3,1.8-.6,2.8-.8.2,0,.3,0,.5-.1,4.1-1,8.6-1.6,11.1-1.9.4,0,.8-.1,1.1-.2,3.9-5,8.1-9.6,12.9-13.7,2.4-2.1,4.8-4,7.5-5.8s5.4-3.5,8.3-5c-14.6-3.4-33.1-6.7-47.2-1.5-5.9,2.3-15.5,8.9-13,15.7.2.5.6,1,1.1,1.5.2.2.4.3.6.5.8.6,1.8,1,2.7,1.2,2.6.5,5,.1,7.2-.8.3-.1.5-.2.8-.4,1.6-.8,3-1.8,4.3-2.9.7-.5,1.3-1.1,1.9-1.6,2.7-2.5,4.7-4.7,5.9-4.1.6.3.9.9.9,1.8,0,.7-.2,1.6-.6,2.5-.4,1.1-1.1,2.2-1.9,3.5-.2.3-.5.7-.7,1-.4.5-.8,1-1.2,1.5-.3.4-.6.7-1,1.1-.3.3-.6.7-1,1-.3.3-.7.6-1,1-.4.3-.8.7-1.2,1-.9.8-1.9,1.5-3,2.2-.9.5-1.7,1-2.7,1.5-.5.2-.9.4-1.4.6-1,.4-2.1.8-3.2,1.1-.8.2-1.6.4-2.5.4-.1,0-.2,0-.3,0-2.5.2-5.2,0-7.8-1-5.1-1.8-8-6.6-7.9-11.9,0,0,0,0,0,0,0-.7,0-1.5.2-2.2.2-1.1.5-2.1.8-3.1.2-.7.5-1.3.8-1.9,1.1-2.1,2.6-4.1,4.4-5.7,0,0,.1,0,.1-.1,1-.9,2.1-1.8,3.3-2.5,1.2-.8,2.4-1.4,3.7-2.1.4-.2.8-.4,1.3-.6,1.7-.8,3.5-1.5,5.3-2.1.4-.1.9-.3,1.3-.4.5-.2,1.1-.3,1.6-.5.6-.2,1.2-.3,1.7-.5,2.9-.7,5.9-1.2,9-1.6,1.4-.2,2.7-.3,4.1-.4,1.1,0,2.1-.1,3.2-.2,0,0,.1,0,.2,0,1.1,0,2.3,0,3.4,0h0c2.5,0,4.9,0,7.3.2.9,0,1.9.1,2.8.2.3,0,.5,0,.8,0,2.7.2,5.4.5,8,.8l21.6,2.7,18.1,2.3c13.2,1.7,26.1,1.5,39.1-.7.2,0,.3,0,.5,0,.2,0,.4,0,.6-.1.4,0,.9-.2,1.3-.3s1-.2,1.5-.3c2.5-.4,5-.5,5.8,1,0,.2.1.3.2.5.3,1.1-.3,2.4-1.3,3.5-1.1,1.3-2.7,2.4-3.8,3.1-2,1.2-4.1,2.1-6.2,2.9-4.1,1.4-8.4,2.2-13,2.3-8.7.3-17.2-.6-25.8-2.6l-25.8-5.9-.2,1-.3,1.6c-8.7,5.1-16.3,11.6-22.2,20.5,3.6.2,7.2,0,10.9-.5.8,0,1.5-.2,2.3-.3.5,0,1.1-.1,1.6-.2,0-1.2,0-2.2,0-3.2.3-1.8,1-3.4,2.3-4.7.7-.7,1.5-1.4,2.4-1.9,0,0,0,0,0,0,1.5-.8,3.3-1.2,5.3-.8,0,0,.1,0,.2,0,.1,0,.3,0,.4.1.3.1.6.3.9.5.2.1.3.2.5.4.3.3.6.5.8.8.1.1.2.3.3.4,0,.1.2.3.2.4.4.9.6,1.8.5,2.6,0,.3,0,.6-.1.8-.3,1.4-1.1,2.6-2.2,3.7,0,0,0,0,0,0-1.5,1.6-3.6,2.8-5.6,3.7l2.6,2.1,1.2.9h0c0,0,0,0,0,.1-.3,1.9-2.8,2-4.1,1.1-1.4-.9-2.6-2.1-4-3.4l-19.7,1.9-13,17.7c-3.7,5.1-7.5,9.9-11.9,14.3ZM378.3,299.8c1.8,3.5,9.2-1.1,11.6-3.3l9.6-8.7c.8-.7,2.2-1.4,2.9-1.2,1,.2,2.5,1.4,2.6,2.7l-8.7,8.7c-5.2,5.2-13.7,11.2-21.3,10.2-4.2-.5-7.2-3.7-6.9-8.1-3.5,2.4-6.6,4.8-10.5,6.2-3.9,1.5-8.6,1.8-12.3-.4-5.7-3.4-6.6-10.5-4.2-16.6-6.2,3.7-13.6,8.4-19.5,2.9-1.9-1.8-2.5-4.6-2.7-7.9l-15.8,22.3c-3.9,0-7.3.2-11.4-.4l17.8-25.4c1.1-1.6,1.8-4.4.6-5.9-6.7-2.7-20.5,14.8-24.7,19.7-3.4,3.9-7,7.5-11.5,10.1-5.3,3.1-11.7,4.1-17.3,1.7-4.3-1.8-6.5-5.8-8.1-10.1-2.8,1.9-8.4,9.7-10.7,5.8-2.6-4.5,2-3.1,7.6-11.5l6.6-9.7c5.2-7.6,13-12.4,22.3-12.7,1,0,2.2.5,2.8,1.2.6.7.9,2,.5,3.1-8.8,1.9-20.1,10.2-19.3,20,.3,3.5,2.8,6.1,6.3,6.4,12.2.9,19.1-16,18-21.1l-1.3-5.9c.7-2.4,4.2-4.2,6.6-3,1.7.9,2.8,3.6,2.9,5.4l.5,5.3,9.8-8.9c4.2-3.8,12.3-6.7,16.7-2.4,1.7,1.7,1.8,3.9,1.9,6.7,3.3-3.4,6.5-6.4,11-7.5,4.1-1,8.6,0,10.6,3.7,1.4,2.6.5,5.6-1.1,7.5-1.9,2.2-4.7,3.2-7.6,2.3-2.9-.9-4.3-3.7-3.1-6.7-3.2.9-4.1,3.7-4.9,6.6-.7,2.6,0,5.9,3,6.6,6.2,1.5,14.3-4.8,19.1-8.6,8-6.4,15.6-12.5,26.6-10.4,3.8.7,5.9,3.4,7.1,7.1l19-26.5,11.6.8-32.8,46.1c-.6.8-.5,2.8-.1,3.5Z"/>
  <path class="st0" d="M374.2,284.9c-4,5.6-9.2,13.4-16.8,14.7s-3.7-.2-4.7-1.4-1.6-3-1.3-4.5c2.6-15.1,20.3-23.4,22.6-16.6s-3.3,6.3.4,7.8Z"/>
  <path class="st0" d="M277.6,251.5c-.9,2.9-3.6,3.9-6.1,4.6-1-3,.5-6.4,3.5-7.3s1.6,0,2,.2.8,1.8.6,2.5Z"/>
</svg>