<?xml version="1.0" encoding="UTF-8"?>
<svg id="Ebene_1" xmlns="http://www.w3.org/2000/svg" version="1.1" viewBox="0 0 600 524.9">
  <!-- Generator: Adobe Illustrator 30.2.1, SVG Export Plug-In . SVG Version: 2.1.1 Build 1)  -->
  <defs>
    <style>
      .st0 {
        fill: #02df82;
      }
    </style>
  </defs>
  <polygon class="st0" points="275.4 370.1 247.5 165 276.1 163.6 289.2 270.7 301.2 163.5 330 165.1 304.8 370.1 275.4 370.1"/>
  <path class="st0" d="M479,327.9c-7.8,4.8-15.7,8.7-24.6,12.6v-55.7c-.1-2.2-1.6-3.7-3.8-3.7h-13.1c0,0,0,66,0,66-9.5,3.3-18.4,6.2-27.9,8.4v-177.4c12.9,3.3,25.2,7.2,37.5,11.9s13.8,5.9,20.5,9.8c7,4.9,10.6,12.6,11.2,21.2v27.7c-.2,7.9-5.1,14.1-12.8,16.6,7.3,2.3,12.5,8.4,12.9,16.2v46.4ZM454.4,246.6v-20.9c0-1.8-.9-4.3-2.7-5-4.7-2-9.2-3.7-14.1-5.3v35.3s12.8,0,12.8,0c2.3,0,4-1.5,4-4.1Z"/>
  <path class="st0" d="M99.9,276.8h27.7s0,28.5,0,28.5c.5,2.4,2.1,4.4,3.8,5.3s5.1,1.5,7.4,0,2.7-3,2.7-5v-87.9c-14.7,5.1-28,11.4-41.6,18.7v-31.7c22.2-12.2,45.2-21.3,70.3-27.3v132.5c.1,15.6-8.5,29.5-24.1,33-7.1,1.6-14.3,1.3-21.3-.9-15.6-4.8-24.3-19.5-24.9-35.4v-30Z"/>
  <path class="st0" d="M391.7,284h-20.3c0,0,0,47.8,0,47.8l20.3-3.4v31.4c-6.5,1.5-12.6,3-19.3,3.8l-30,3.8v-201.4c16.6,1.6,32.7,4.2,48.7,7.5v29.9s-19.8-3.7-19.8-3.7v50.6s20.3,0,20.3,0v33.4Z"/>
  <path class="st0" d="M240.2,284h-22c0,0,0,49,0,49l23,2.9v32.3c-17.2-1.7-34.5-4-52-7.6v-187.4c16.2-3.3,32.3-5.7,49.3-7.4v28.7c0,0-20.4,2.6-20.4,2.6v53.5s21.9,0,21.9,0v33.4Z"/>
</svg>