<?xml version="1.0" encoding="UTF-8"?>
<svg id="Ebene_1" xmlns="http://www.w3.org/2000/svg" version="1.1" viewBox="0 0 600 524.9">
  <!-- Generator: Adobe Illustrator 30.2.1, SVG Export Plug-In . SVG Version: 2.1.1 Build 1)  -->
  <defs>
    <style>
      .st0 {
        fill: #02df82;
      }
    </style>
  </defs>
  <path class="st0" d="M330.8,211.3l-8.4,14.2v36.4s4.7,1.8,4.7,1.8l-6.3,10.8-13.8-3.4c.7-2.8,1.3-5.5,1.3-8.5v-48.8c-2.1-.9-4-1.6-6.2-2.3l-7.8,13.3v38s3.9,1.5,3.9,1.5l-5.8,10-13.8-3.2c.7-3.6,1.2-6.8,1.2-10.5v-49.1s-5.9-2.7-5.9-2.7l7-10.2,14.1,5.3c-1.5,4-1.1,9.7-.8,14.2l11.4-19.5,17.1,6.4c-.9,4.6-.8,9.1-.4,14.2l10.8-20.2,18.1,6.1c-.9,2.2-2.2,4.3-2.2,6.7v50.1s5.9,2,5.9,2l-5.7,10.4-15.1-3.7c1-3.3,1.4-6.3,1.4-9.9v-47.9s-4.9-1.5-4.9-1.5Z"/>
  <path class="st0" d="M52.8,251l19,23.3v-48.5c0,0-10.8,0-10.8,0l-4.8,12.4v-24.1c1.1-.4,3.5-.6,4.5.2l3.4,2.5h7.2s-.2-15-.2-15c2.2-1,4.6-2.6,6.4-4.7-2.7.5-4.7,1-7.2.9h-18.2c0,0-5.1,13.4-5.1,13.4v-26.6c4.5-.7,3.5-.3,5.8,2.1h40.9c.2,1,.2,2.3,0,3.1-3,.8-5.5,3.3-5.5,6.7v80.9c-3.7,1.7-7.8,2.3-11.1,4.3s-8,6-12.4,9l-18.5-23.5c-5-6.4-2.7-16.3,1.3-22.7h2.6c.4,2.4.9,4.5,2.4,6.3Z"/>
  <path class="st0" d="M161.8,275c4.7-.6,8.5.5,13.3,2.1v-21.8s-10.8,19.1-10.8,19.1l-16.6-4.8c.9-2.8,1.3-5.3,1.3-8.4v-44.4c0-1.7-.7-3.6-1-5.2.9-.1,3.2,0,4-.4,6.3-4.2,7.5-5.7,12.7-11.4l25.7,7.9c-.6,1.3-1.2,2.5-1.2,3.6v67.9s-7.8,2.2-7.8,2.2l-8.9,8.3c-5.9-3.3-19.4-7.2-23.5.2l-3.5-.4c2.3-7.8,8.1-13.6,16.3-14.6ZM175.4,226.6c.2-2.2-1-4.5-1.8-6.4l4.4-3.6-15.2-5.2v49.7s5,1.4,5,1.4c1.8-5,5.8-9.3,7.1-14.5,1.3-6.9,0-14.2.5-21.4Z"/>
  <path class="st0" d="M115.5,274.9l-17-3.7c.4-1.6.5-2.7.5-4.2v-36.3c0-1.3-1-2.8-1.6-4.3l9.6-4.3c-3.8-2.2-6.8-5.1-9.3-9,12.4-6.4,9-3.5,18.5-13.5l23.5,8.6c-1,1.9-1.6,3.2-1.6,5v49.1s5.1,2,5.1,2l-6.7,10.6-12.8-3.4c1.3-4.2,1.7-7.8,1.1-12.7l-9.4,16ZM128.7,215.7l-15.6-4.9c0,3.5,2.6,5.9,5.8,6.6s6.7.5,9.8-1.7ZM118.3,262.8l5.5-9.4v-33.2c0,0-11.1,5.5-11.1,5.5v34.9s5.6,2.2,5.6,2.2Z"/>
  <path class="st0" d="M540.7,213.9l-5.3,9.5v37.2s8.1,2.4,8.1,2.4l1.6-4.7,4.3,1.9-8.5,14.2-20.1-4.9c.4-2.1.9-3.7.9-5.6v-52.2s-5.3-2.2-5.3-2.2l7.4-10.8,12.2,4.3c-.3,1.4-.8,3-.8,4.3l.2,9.3,8.9-17.6c.9-.5,2.6-.6,4-.3,5.6,11.6,11.6,32.3-2.7,39.9l-2.8-2.4c2.3-2,2.7-4.3,2.4-7.1l-4.5-15.3Z"/>
  <path class="st0" d="M257.7,213.7l-5.3,9.5v37.4s8,2.5,8,2.5l1.7-4.7,4.3,1.9-8.5,14.2-20.1-4.9c.3-1.7.8-3.3.8-4.7v-53s-5.3-2.3-5.3-2.3l7.4-10.8,12.2,4.3c-.3,1.4-.8,3-.8,4.2l.2,9.3,9-17.8c1.2-.2,2.6-.2,3.9,0,5.5,11.6,11.6,32.3-2.8,39.9l-2.6-2.5c1.9-1.9,2.9-4.4,2.3-7.1-1.3-5.3-2.7-10.3-4.4-15.5Z"/>
  <path class="st0" d="M441.2,196.6v85.3c-4.5.5-7.6,3.4-7.8,8.2h-5.9c0,0,0-86.4,0-86.4,0-3.2-.9-6.1-1.5-9,13.3-4.4,7.4-.9,17.3-10.8l6.9,4.5c3,1.9,6.4,1,8.6-1.8s3.2.9,2.6,1.6l-6.4,8.3c-1.8,2.4-9.7,4.1-13.8.2Z"/>
  <path class="st0" d="M395.4,260.5l-9.3,14.8-26-6.8c.6-2.1,1.3-3.9,1.3-5.9v-45c0-2.3-.6-4.1-1.5-6.4l8.9-2.4,8.1-9.5,17.9,17.6-19.8,33.7v8.8s13.8,3.9,13.8,3.9l1.3-4.5,5.4,1.8ZM384.5,225.9l-9.8-12.3v30c0,0,9.8-17.7,9.8-17.7Z"/>
  <path class="st0" d="M517.7,260.5l-9.3,14.8-26.1-6.8c.6-2.1,1.3-3.9,1.3-5.9v-45c0-2.3-.6-4.1-1.5-6.4l8.9-2.5,8.1-9.5,17.9,17.6-19.8,33.7v8.8s13.8,3.9,13.8,3.9l1.3-4.5,5.4,1.8ZM506.9,225.9l-9.8-12.3v30c0,0,9.8-17.6,9.8-17.6Z"/>
  <path class="st0" d="M233.9,260.5l-9.2,14.8-26-6.8c.6-2.1,1.3-4.2,1.3-6.4v-46c0-1.6-.9-3.3-1.5-5l9-2.6,8-9.5,17.9,17.7-19.8,33.7v8.7s13.8,3.9,13.8,3.9l1.3-4.5,5.4,1.8ZM223.1,226l-9.8-12.6v30.3c0,0,9.8-17.7,9.8-17.7Z"/>
  <path class="st0" d="M474.9,263.9l-6.7,10.3-15-4c.8-2.6,1.7-5.1,1.7-7.9v-54s-4.2-.5-4.2-.5l8.3-8.7,8.9-11.9.2,10.7h13.4c0,0-4.9,10.4-4.9,10.4h-8.4c0,.1,0,52.5,0,52.5l6.6,3.1Z"/>
  <path class="st0" d="M416,274.2l-15.2-3.8c1.2-3.9,1.9-7.2,1.9-11.1v-46.9s-6.2-2.7-6.2-2.7l7.1-10.7,14.1,5.1c-.6,1.4-1.7,3.1-1.7,4.5v52.9s5.8,2.6,5.8,2.6l-5.8,10Z"/>
  <path class="st0" d="M411,195.3c-.4.5-2.5-.6-2.3-1.2l2.9-10.1,7,2.3-7.6,9Z"/>
  <path class="st0" d="M120.5,194.5c-.4.4-1.3,1.1-1.7,1.1s-1.3-.6-1.5-1l2.9-9.8,6.8,2.5-6.5,7.3Z"/>
  <path class="st0" d="M133.5,194.6c-.4.4-1.4,1-1.9,1s-1.3-1-1.2-1.5l2.8-9.3,6.8,2.4-6.6,7.4Z"/>
</svg>