<?xml version="1.0" encoding="UTF-8"?>
<svg id="Ebene_1" xmlns="http://www.w3.org/2000/svg" version="1.1" viewBox="0 0 600 524.9">
  <!-- Generator: Adobe Illustrator 30.2.1, SVG Export Plug-In . SVG Version: 2.1.1 Build 1)  -->
  <defs>
    <style>
      .st0 {
        fill: #02df82;
      }
    </style>
  </defs>
  <path class="st0" d="M187.9,303.6l-28.7.3c-1,0-2.3-.9-2.7-1.7l-18.5-36.4-7.8,9.9v26.2c0,1.2-.9,2-2.1,2h-29.1c0-.1,0-125.8,0-125.8h30c.6,0,1.2,1.7,1.2,2.4v48.9c.1,0,21.6-25.6,21.6-25.6,1-1.4,2.4-2.3,4.1-2.6l31.1.2-27.4,38.5c-.8,1.2-.9,2.6-.3,4l28.5,59.8Z"/>
  <path class="st0" d="M361.4,295.7c-13.1,14-29.7,11.5-43.3,1.2-8.5-6.4-13.2-15.7-14.6-26.2-1.7-13,3.1-25,13.1-33.3,11.2-9.3,21.8-9.8,35.9-7.6,2.9.5,5.5,1.5,8.3,2.8v-29.7c0-1.1.7-2,1.8-2h24.1c1,0,1.9.9,1.9,2.1v98.2c0,1.4-.7,2.4-1.9,2.4h-24.7c0,0-.5-7.9-.5-7.9ZM360.1,277.5c2.8-9.7,2.5-26.2-8.1-30.4s-17.2-1.5-20.8,6.2-4.1,19.4.5,28.2c2.6,4.9,7.9,6.7,13.1,6.8s13.2-3.6,15.3-10.8Z"/>
  <path class="st0" d="M268.8,247c-3.6-3.1-9.6-2.4-12.8.7s-3.2,5.3-3.7,8.6v47.4c0,0-27.2,0-27.2,0v-72.9c0-.8,1-1.7,1.7-1.7h22.2c1.5,0,2.5.6,2.7,2.3,8.8-3,17.9-4.7,27.3-3.8,10.5,1,18.4,8.9,19.8,19.4s.5,8.5.5,12.9v43.7c0,0-27.2,0-27.2,0v-48c-.6-3.1-.5-6.5-3.2-8.7Z"/>
  <path class="st0" d="M444.7,284c1.7-1.9,3.4-2.4,5.7-2.4h22.3c-8.1,23.3-38.1,27.4-58,19s-26.3-30.5-18.5-50.1,7.5-12.2,13.8-16c12.2-7.4,26.5-8.3,39.9-3.7,18.4,6.3,23.5,22.4,24.5,40.3s0,2.8-.8,3.8h-53c0,3.6,1.2,7,3.7,9.4,5.7,5.6,14.9,5.4,20.5-.3ZM447.7,257.3c-.4-7.1-6.4-11.5-13.2-11.4-7.1.1-13.6,4.7-13.9,12.2h23.5c1.2,0,2.9,0,3.6-.8Z"/>
  <path class="st0" d="M504.4,303.8h-23.4c-1.1,0-1.9-.8-1.9-2v-70.9c0-1,1.1-1.6,1.9-1.6h22.8c1.5,0,2.2,1.1,2.1,2.5s0,2,.1,2.9c6.6-4,12.3-5.5,20.5-6.5v22c-9.2-.5-19.2,1.1-20.2,11.4s-.4,9.2-.4,14v26.4c0,.7-.6,2-1.5,2Z"/>
  <path class="st0" d="M217.5,303.8h-24.3c-1.1,0-1.8-.9-1.8-2.1v-72.5s27,0,27,0v70.4c.3,1.3.1,3.2-.8,4.2Z"/>
  <polygon class="st0" points="218.3 224.1 191.3 224.1 191.4 200.9 218.2 200.9 218.3 224.1"/>
</svg>