<?xml version="1.0" encoding="UTF-8"?>
<svg id="Ebene_1" xmlns="http://www.w3.org/2000/svg" version="1.1" viewBox="0 0 600 524.9">
  <!-- Generator: Adobe Illustrator 30.2.1, SVG Export Plug-In . SVG Version: 2.1.1 Build 1)  -->
  <defs>
    <style>
      .st0 {
        fill: #02df82;
      }
    </style>
  </defs>
  <path class="st0" d="M385.2,124.3c-17.8-8.1-27.4,19-30.8,31.6-10.4,39.1-16.8,81.7-21.4,122-3.7,34.3-6,68.4-6.9,103.1h-37.1c-1.3-48.5-5.1-96.6-12.3-144.7-3.9-25.9-8.6-51.3-15-76.6-2.8-11-7.4-25.5-15.9-33-8.5-7.5-18.3-2.7-25.2,4.1-34.1,33.1-44.9,112.6-50,158.3-3.9,37.3-5.7,74.3-5.9,112.1h-38c2.7-40.8,7.6-80.9,14.8-121,6.7-36.2,17-80.6,32.1-114,6.7-14.9,15.4-28.6,25.7-41.2s11.5-12.3,18.7-16.7,20.9-6,30.6-.2c14.5,8.5,24.3,23.7,31.9,38.5,14,28.5,20.8,57.8,27.2,89.4,7.2-38,23.5-107.7,59.5-128.2,9.8-5.6,21.1-5.2,30.6.8s13.1,10.2,18.5,16.9c21.2,26.1,30.9,50.7,40.6,82.7,6.6,21.8,11.5,43.8,15.9,66.3,7.8,42,12.9,84,15.8,126.8h-38c-.1-38.6-2.1-76.5-6.2-114.7-5.1-45.1-16-122.4-49.3-155.2-2.9-2.9-6.1-5.2-9.8-6.9Z"/>
</svg>