<?xml version="1.0" encoding="UTF-8"?>
<svg id="Ebene_1" xmlns="http://www.w3.org/2000/svg" version="1.1" viewBox="0 0 600 524.9">
  <!-- Generator: Adobe Illustrator 30.2.1, SVG Export Plug-In . SVG Version: 2.1.1 Build 1)  -->
  <defs>
    <style>
      .st0 {
        fill: #02df82;
      }
    </style>
  </defs>
  <polygon class="st0" points="146.7 291.9 146.7 253 112 307.3 71.2 254.2 71 291.7 82.2 292 82.1 304.9 44.2 304.9 44.1 291.9 55.3 291.8 55.4 233.4 44.1 233.2 44.1 220.5 102.1 220.5 127.8 253.6 148.9 220.5 201.3 220.5 201.3 233.2 191.5 233.3 191.4 291.7 201.3 291.9 201.3 304.9 136.5 304.9 136.4 291.9 146.7 291.9"/>
  <path class="st0" d="M542.1,284.4c-4.3,9.4-12,16.1-21.3,19.8-13,4-26.4,4.8-39.8,2.5-6.4-1.3-12.2-3.1-17.8-6.3-10.8-6-16.8-17.5-15.8-29.9s1.6-9.2,4.5-13.2c4.2-5.8,9.7-10.3,16.6-12.7,18-6.4,40.9-7.4,58.4,1.2,13,6.4,19.3,17.8,17,32.7h-54.4c-1.3,7.1,2.9,14.2,9.8,16.5,7.9,2.3,15.3-2.4,17.3-10.6h25.5ZM504.2,266.3v-8.9c.2-4.2-3.1-7.3-7.3-7.3s-6.8,1.8-7.2,5.2-.3,7.1-.3,11h14.8Z"/>
  <path class="st0" d="M347.8,284.4h25.5c-4.4,9.5-12.2,16.3-21.7,19.9-18,5.6-42.4,5.1-58.7-4.9s-14.8-16.2-14.4-27.4c.2-4.7,1.1-9,3.5-13,4-6.6,9.9-11.6,17.4-14.3,15.1-5.5,31.3-6.7,47-3.1s12.8,4.1,18.2,8.2c9.4,7.2,11.8,16.9,10.6,28.6h-54.5c-1.3,7,2.8,13.8,9.4,16.5,7.9,2.3,15.6-1.8,17.7-10.5ZM335.3,266.3l.2-8.5c.1-4.4-3.1-7.7-7.5-7.7s-7,2-7.2,5.6-.2,6.8-.2,10.6h14.7Z"/>
  <polygon class="st0" points="378.8 304.9 378.6 291.9 389.4 291.8 389.5 233.4 378.6 233.2 378.6 220.5 433.6 220.5 433.6 291.7 444.5 291.9 444.4 304.9 378.8 304.9"/>
  <polygon class="st0" points="210.1 304.9 209.9 292 220.4 291.8 220.4 254.5 210 254.4 210 241.4 265.2 241.4 265.2 291.7 276.3 291.9 276.3 304.9 210.1 304.9"/>
  <polygon class="st0" points="235 238.8 229.1 227.2 250 216.8 255.9 228.6 235 238.8"/>
</svg>