<?xml version="1.0" encoding="UTF-8"?>
<svg id="Ebene_1" xmlns="http://www.w3.org/2000/svg" version="1.1" viewBox="0 0 600 524.9">
  <!-- Generator: Adobe Illustrator 30.2.1, SVG Export Plug-In . SVG Version: 2.1.1 Build 1)  -->
  <defs>
    <style>
      .st0 {
        fill: #02df82;
      }
    </style>
  </defs>
  <path class="st0" d="M244.8,393.7c-63.1-23.4-104.2-85.2-101.2-152.2l-48-2v-28s52.3-.6,52.3-.6c7.1-29.4,23-55.9,44.4-76.1,64.8-61.2,167.4-55.6,225.1,12.3,25.1,29.6,38.9,68.4,36.7,108l48.4,2v27.7c0,0-52.4.6-52.4.6-12.6,50-49.2,90.7-97.4,108.5-34.6,12.8-73,12.8-107.9-.2ZM334.2,249.9l102.1,4.6c1.8-38.3-12.2-75.2-38.6-102.3-38-39.4-95.6-52.5-146.9-33.4-40.8,15.3-72.4,49.3-84.3,92.1l222-2.5-54.3,41.5ZM431.3,285.3l-220.5,2.6,53-41-102.2-4.5c-1.6,39.1,13.6,76.6,41.3,103.8,31.4,30.8,75.3,44.8,118.7,37.6,52.2-8.5,95.8-47.4,109.7-98.4Z"/>
</svg>