<?xml version="1.0" encoding="UTF-8"?>
<svg id="Ebene_1" xmlns="http://www.w3.org/2000/svg" version="1.1" viewBox="0 0 600 524.9">
  <!-- Generator: Adobe Illustrator 30.2.1, SVG Export Plug-In . SVG Version: 2.1.1 Build 1)  -->
  <defs>
    <style>
      .st0 {
        fill: #02df82;
      }
    </style>
  </defs>
  <path class="st0" d="M51.9,340.9h-5.3c-3.4-1.1-6.4-3.2-7.9-6.2s-2.2-7.8-.2-11.2l38.7-67.2c3.4-5.8,11-7.5,16.5-4.2s7.7,10.8,4.3,16.5-10.6,7.6-16.4,4.4l-12,20.7c15.7,9,35.6,5.1,46.6-9.2,8.6-11.2,10-26.3,3.2-39-6.2-11.7-19-19.5-32.8-19.1s-23.6,6.8-29.8,17.4l-21.4,37c-1.8-4.8-2.5-9.4-3.2-13.9v-9.3c1.7-16.1,10-30.9,22.9-40.1,14.5-10.3,32.3-13,49-7.9l11.5-19.9c3.3-5.7,10.7-7.3,16.2-4.2,5.4,3.1,8.1,10.2,4.8,15.9l-11.6,20.2c20.5,18.7,23.8,49.7,7.8,72.5-13.7,19.6-38.8,28.3-62,21l-10.9,19.1c-1.9,3.3-4.6,5.3-8.1,6.4Z"/>
  <path class="st0" d="M385.8,254.7c4.1,14.3-3.1,29.2-17.5,33.8s-11.6,1.8-17.2.1c-11.5-3.4-18.9-13.6-19.1-25.5s6.8-22.4,18.1-26.2c14.8-5,31.3,2.4,35.7,17.8ZM359.2,280c6.4.1,11.8-3.2,14.5-8.9s2.6-11.7,0-17.1-8.5-9.1-14.9-8.9-11.1,3.4-13.7,8.8-2.6,11.2-.3,16.5c2.5,5.9,7.9,9.5,14.4,9.6Z"/>
  <path class="st0" d="M488.5,288.2c-6.2,2.2-12.6,2.2-18.7.2-11.2-3.6-18.4-13.8-18.5-25.5-.1-12.4,7.7-23.1,19.7-26.4,5.3-1.5,10.9-1.4,16.2.2,11.7,3.4,19.1,14,19.1,26,0,11.5-6.7,21.7-17.8,25.6ZM479,280c6.1,0,11.3-3.2,14-8.6s2.7-11.3.4-16.6-8.4-9.7-15.1-9.6-11.4,3.5-13.9,9c-2.4,5.2-2.4,11.3,0,16.6s8.1,9.3,14.7,9.2Z"/>
  <path class="st0" d="M567.4,288.6c0,.5,0,.8-.2,1s-.9.2-1.3-.2l-26.8-25.2c-2.2-2.1-3.6-4.2-5.6-6.4.2,3,.6,5.5.6,8.4v23s-10.2,0-10.2,0v-53.2c.6-.4,1.1-.2,1.6.3l27.1,25.5c1.9,1.8,3.2,3.8,5.1,5.8l-.6-10.7v-20.6s10.3,0,10.3,0v52.4Z"/>
  <polygon class="st0" points="262.6 267.2 241.4 267.2 241.4 279.5 266.6 279.5 266.6 289.2 230.4 289.2 230.4 236.1 265.6 236.1 265.5 245.8 241.4 245.8 241.4 257.8 262.6 257.8 262.6 267.2"/>
  <path class="st0" d="M213.9,258.7c-2,9.4-10.4,13.1-19.4,13.1h-7.5s0,17.4,0,17.4h-11s0-53,0-53h20.1c3.4,0,6.6,1,9.6,2.3,7.7,3.8,9.9,12.4,8.2,20.2ZM202.1,258.4c1.5-2.9,1.4-6.5,0-9.2-2.6-4.8-10.5-3.2-15-3.4v16.3s9,0,9,0c2.4,0,4.9-1.3,6.1-3.5Z"/>
  <polygon class="st0" points="424.7 289 413.7 289.1 413.7 245.8 398.6 245.8 398.6 236.1 439.8 236.1 439.8 245.8 424.7 245.8 424.7 289"/>
  <polygon class="st0" points="319.8 279.4 319.8 289 284.9 289 284.9 236.1 295.9 236.1 295.9 279.4 319.8 279.4"/>
</svg>