<?xml version="1.0" encoding="UTF-8"?>
<svg id="Ebene_1" xmlns="http://www.w3.org/2000/svg" version="1.1" viewBox="0 0 600 524.9">
  <!-- Generator: Adobe Illustrator 30.2.1, SVG Export Plug-In . SVG Version: 2.1.1 Build 1)  -->
  <defs>
    <style>
      .st0 {
        fill: #02df82;
      }
    </style>
  </defs>
  <path class="st0" d="M206.5,227.4l-.5-.8c-.1-.2-1,.3-1,1l-.2,47.8h-16.9c0,0,1.4-64.8,1.4-64.8h28.6s5.4,34.7,5.4,34.7l.5.8c.1.2.9-.3,1.1-.5l5.6-35.4h28.3s1.8,65.3,1.8,65.3h-17s-.4-48.2-.4-48.2c0-.2-.2-.8-.3-.7l-.9.2-8.8,48.7h-17.8s-8.8-48.2-8.8-48.2Z"/>
  <polygon class="st0" points="471.1 275.6 451 275.6 432.4 235.4 433.1 275.5 416.2 275.6 416.2 210.3 437 210.2 454.9 250.5 454 210.3 471.1 210.3 471.1 275.6"/>
  <path class="st0" d="M393,210.3v50.2c0,6.5-3.8,11.7-9.7,14.2-8.5,3.7-18.3,3.8-26.9.3s-10.2-8.6-10.2-15.5v-49.2s18.6,0,18.6,0v49.2c0,3.3,2.3,5.1,5.2,5.2s4.8-2.2,4.8-5.4v-49s18.1,0,18.1,0Z"/>
  <path class="st0" d="M325.9,262.4c-.7,15.1-23.3,18.1-36.3,13.2s-9.4-6.6-9.8-12.2-.1-5.9,0-9h18.2c0,2.7,0,4.8.2,6.9s3.4,3.9,5.7,3.5,4.3-2.8,4.1-5.8-2.2-5.1-4.6-6.4c-4.9-2.7-9.8-5-14.5-7.9-8.7-5.4-7.8-13.1-7.6-22.1.5-16,24.1-16.1,35-12.2s8.2,5.5,8.6,10.2.2,6.3.1,9.8h-16.9c0-2.3,0-4.2-.3-6.2-.3-3.2-4.7-4.1-7-3s-3.6,5.3-1.5,8,3.2,3,5.1,3.9l11.8,5.9c10.3,5.2,10.5,13.4,10,23.4Z"/>
  <path class="st0" d="M102.1,262.9c-1,14.5-23.1,17.5-36.1,12.8s-9.5-6.5-10-12.1c-.2-3.1-.1-5.9-.1-9.1h18.1s.2,6.3.2,6.3c0,3,3.2,4.4,5.6,4.1s4.5-2.8,4.3-5.8-2-4.9-4.3-6.2c-5-2.8-10.1-5.2-14.9-8.2-8.6-5.4-7.7-13.2-7.4-22.1.1-5.1,3-9.1,7.8-11.2,8.7-3.8,18.8-4.1,27.8-.6,4.3,1.7,7.7,5.6,8,10s.1,6.2.1,9.7h-17s-.2-6.4-.2-6.4c0-2.1-2.9-3.2-4.4-3.3-2.2-.2-4.1.9-4.9,2.9-2.4,5.7,5.1,9.2,9.3,11.2,14.9,7.3,19.5,9.1,18.3,28.1Z"/>
  <path class="st0" d="M516.7,249.1h-4.6c0-.1,0-9.7,0-9.7h21.9s-.1,23-.1,23c0,5.7-3,10.1-8.1,12.3-11.1,5.2-35.9,3.2-35.9-12.7l-.2-35.9c0-7.7,3.7-14.2,11.3-16.6,7.6-2.4,15.9-2.2,23.4.6s9.7,11.2,9.3,20h-17.1c0-2.6,0-4.8-.4-7s-2.7-2.9-4.1-2.8-4.5.9-4.5,3v36.9c0,2.8,2.3,4.3,4.5,4.4s4.7-2,4.7-4.8v-10.5Z"/>
  <path class="st0" d="M145,226.3l-.4-1.1c0-.2-1.3,0-1.3.5l-6.6,49.6c-6.3.4-12,.3-18.2.2l11.2-64.9h28.8s11.2,64.9,11.2,64.9h-18.2c0,0-6.5-49.2-6.5-49.2Z"/>
</svg>