<?xml version="1.0" encoding="UTF-8"?>
<svg id="Ebene_1" xmlns="http://www.w3.org/2000/svg" version="1.1" viewBox="0 0 600 524.9">
  <!-- Generator: Adobe Illustrator 30.2.1, SVG Export Plug-In . SVG Version: 2.1.1 Build 1)  -->
  <defs>
    <style>
      .st0 {
        fill: #02df82;
      }
    </style>
  </defs>
  <polygon class="st0" points="550.3 285.2 526.2 285.2 511.6 225.3 512.9 285.2 494.4 285.2 494.4 202.2 518.7 202.1 533.1 261.6 532.4 202.1 550.3 202.1 550.3 285.2"/>
  <path class="st0" d="M213.6,273c-3-10-14.7-20.9-22.6-27.4v-4.9c10.9,8.1,23.7,19.3,31,30.7s6.3,13.9-.5,17.9c-13,7.8-39.9.9-54-3.3-14-4.3-27-9.8-40.6-16.4,2.6,9,8.4,15.7,15.5,21.7-20-1.2-37.1-17.2-41.2-36.7-13.9-9.2-41.2-29.3-44.4-45.8-.9-4.7,1.2-8.7,5.4-10.7,3.3-1.6,6.9-2,10.7-2.3,17-.4,34.2,4.1,50.3,9.4,8.8-5,18.6-7.3,28.9-5.8-4.8,1.9-8.5,4.7-11.9,8.5-10.3,11.7-17.8,29.8-16,45.8-6.9-3.6-13.2-7.7-17.9-13.7s-4.3-5.9-3.5-9c2.3-9.5,8.7-16.8,16.2-23-12.4-3.7-32.6-8.3-44-3.9-5.1,1.9-7.4,6.7-5.6,11.8,1.5,4.5,4.1,8.4,7.4,12,5.7,6.3,12,11.8,19,16.8,22.3,16.1,47.1,28.3,73.5,35.9s28.9,7,39.2,2.9,6.4-5.9,5-10.5Z"/>
  <path class="st0" d="M430.6,202.1v65.2c0,7.8-4.3,14.2-11.6,17.1-7.6,3.1-16.4,3.1-24.1.1-7.2-2.8-11.8-9.1-11.9-16.9v-65.6s18.5,0,18.5,0v65c.7,3,2.6,5.1,5.3,5.1s4.8-2.3,5.3-5.5v-64.6s18.5,0,18.5,0Z"/>
  <path class="st0" d="M459.5,242.9c4-.3,6.7-2.5,7.8-6.1,1.7-5.5,2.3-18.8-4.8-20.8s-3.4-.4-5.4-.3v69.4s-18.3,0-18.3,0v-83s26.1.1,26.1.1c10.6,0,18.9,7.6,21,17.7,1.7,10.1.5,22.2-7.8,29l11.1,36.1h-19s-10.7-42.1-10.7-42.1Z"/>
  <path class="st0" d="M286,270.2c-2.8,15.3-20,19-32.4,15.3-8.3-2.5-14-9.5-14.8-18.1-.3-2.8-.2-5.4-.1-8.3h18.1s.1,7.1.1,7.1c0,1.9.8,4,2.2,5.4,2.1,2.2,6.1,2,7.5-.8,4.3-8.2-4.2-16-10.1-20.5-10.1-7.8-17.7-14.2-17.1-28.4.3-8.1,4.5-14.9,11.8-18.4s13.1-3.6,19.8-1.9c7.8,2,13.4,8.1,14.9,16,.7,3.8.6,7.6.4,11.3h-17.5c.1-4.2.6-12.6-4.4-13.4s-4.2.6-5.2,2.6c-3.5,7.3,2.4,12.5,7.4,16.5,4,3.2,7.9,6.3,11.6,9.9s6.4,7.5,7.5,12.4,1.1,8.9.3,13.4Z"/>
  <polygon class="st0" points="323.8 285.2 315.4 220.3 306.7 285.2 287.6 285.2 302.9 202.1 327.5 202.1 342.8 285.2 323.8 285.2"/>
  <polygon class="st0" points="366.9 285 348.3 285.1 348.3 216.5 334.6 216.4 334.6 202.1 378.7 202.1 378.7 216.4 366.9 216.5 366.9 285"/>
</svg>