<?xml version="1.0" encoding="UTF-8"?>
<svg id="Ebene_1" xmlns="http://www.w3.org/2000/svg" version="1.1" viewBox="0 0 600 524.9">
  <!-- Generator: Adobe Illustrator 30.2.1, SVG Export Plug-In . SVG Version: 2.1.1 Build 1)  -->
  <defs>
    <style>
      .st0 {
        fill: #02df82;
      }
    </style>
  </defs>
  <path class="st0" d="M270.6,255.2c7.2-10.5,13.8-20.9,13.2-34.5s-8.8-5-17.7-7.1-3.9-3.2-3.1-5.8-.7-4.2-1.4-6.4.8-3.4-.8-4.8l1.4-4.3c-1.5-2.7-5.1-1.6-6.6-3.9s7.6-15.4,8.1-19.8l-2-4.3,3-8.9c1.2-3.4-5.6-2-6.8-10.8s.9-7.5,3.7-10.3c5.4-5.5,11.7-10.2,19.6-11.6s8.8-1.9,13.3-2.4,9.6,1.7,14.3,1.5,11.1.8,15.8,4.6,15.6,4.8,17.8,18.5c1.4,8.3,3.4,11.5,1.8,18.9-3.1,14.8,1.4,13.8-6.5,25.2l-5.1,7.4c-3.3,4.7-10.6,3.2-10.7,10.2-.1,14.2,10,27,4.7,27.9-14.9,2.4-26.5,9.9-38.5,18.7-3.8,2.8-16.3,11.5-21.1,9.4.8-2.9,1.9-4.8,3.4-7Z"/>
  <path class="st0" d="M474.9,405.3c1.6-2.8,2.7-4.9,2.7-7.8v-70.5c0-2.9-1.2-5.1-2.6-7.6h12.9c0,0,.3,5.8.3,5.8,3.8-4.4,8.7-6.8,14.6-7s15.8,4.1,19.1,11.9c4.4,10.3,2.7,22.3-4.2,31-7.2,9.1-18.9,12-29.6,6.1v30c0,3.1,1.1,5.6,2.8,8.1h-15.9ZM492.1,364.4c7.1,4.2,15.5.8,18.6-6.6,3.5-8.4,3.5-18.3-.4-26.6-3.2-7-11.6-9.9-17.9-5.5s-4.3,6-4.4,9.5c-.3,7.1-.3,14,0,21.1s1.4,6.5,4.1,8.1Z"/>
  <path class="st0" d="M168.6,338.2c0-3.5-.5-7.1-1.8-10.1-2.3-5.3-13.2-5.7-17.4-.7-2.1,2.5-3.4,6.1-3.4,9.5v24.5c0,2.8,1,5.1,2.6,7.7h-16c1.5-2.5,2.7-4.7,2.7-7.5v-72.8c0-2.9-1-5-2.4-7.8h13s0,43.8,0,43.8c5.3-4.5,11.4-7.2,18.2-6.6s10.5,3.6,12.6,9.1c1,3.1,1.9,6.5,1.9,9.9v24c0,2.9,1.1,5.2,2.8,7.9h-12.9s0-31,0-31Z"/>
  <path class="st0" d="M420,368.9l-14.1.3-20.2-26.9v19.5c-.1,2.6,1,4.9,2.5,7.4h-16c1.9-2.8,2.9-5.2,2.9-8.5v-71.4c0-3.2-1-5.6-2.7-8.3h13.1s0,57.9,0,57.9c4-3.2,19.7-15.3,12.9-19.5h16.5c0,0-20.1,17.5-20.1,17.5l25.2,32Z"/>
  <path class="st0" d="M242.2,319.6h14.9c-3.2,1.9-5.9,4.4-7.2,8.2l-13.5,41.4h-7.5c0,0-9.9-32.8-9.9-32.8l-10.7,32.9h-7.7s-11.5-38.3-11.5-38.3c-1.3-4.3-3.2-7.8-6-11.5h16.5c-1.5,2-2.3,3.7-1.6,5.9l9.2,30.8,11.8-36.5h5.4c0,0,10.8,36.6,10.8,36.6l8.5-25.5c.6-1.7.9-3.6,1.4-5.3.8-2.6-.5-4.3-2.9-5.9Z"/>
  <path class="st0" d="M446.9,370.9c-16.6,1.4-29.7-11.2-29.2-27.5.3-9,4.3-16.7,12.2-21.6s16.5-5.5,24.5-2.4c11,4.3,17.2,15.3,16.4,26.9-.9,13-10.7,23.4-23.9,24.5ZM448,366.5c13.2-2.8,13.8-27.3,6.5-38.5-4.3-6.6-13.2-8.2-19.1-2.8s-7.2,18.2-5.2,26.9,8.5,16.3,17.7,14.4Z"/>
  <path class="st0" d="M77.2,367.2c-10.2,5.8-22.5,2.8-31.7-2.4l.7-14.2c2.6,4.1,3.4,7.7,6.7,10.4,4.9,3.9,11.4,5.1,17.4,2.8s9.7-10.4,5-15.3c-6-6.3-18.4-9.6-25.4-17.2-4.6-5-5.1-12.1-1.1-17.6,7.9-11.1,22.9-9.2,33.7-4.2l-.4,11.6c-3.2-4-5.1-7.3-9.1-9.5s-9.7-2.7-13.6.3-3.4,3.8-3.6,5.9c-1.4,12.2,24.4,13.1,29.6,25.8,3.6,8.9,0,18.8-8.4,23.6Z"/>
  <path class="st0" d="M265.5,369.9c-7.6,0-12.9-5.7-12.6-12.9.5-13.1,15.7-12.7,25.3-21.1,3.5-3,4.2-8.9.4-11.9-3.2-2.5-8-1.7-11.3.1s-4.6,4.4-7.7,7.4c.3-3.4.9-6.2,1.6-9.4,7.1-3.6,22.4-6.5,27.5,1s2.6,6.1,2.7,9.4l.4,29.3c0,2.8,1.2,5.3,2.6,7.5h-12.5s-.3-5.3-.3-5.3c-5,3.5-9.8,6-16,6ZM273.6,364.1c4.6-.6,7.7-4,7.9-8.7.2-5.4.2-10.9,0-16.3l-12.5,7.6c-3,1.8-5.2,4.3-5.4,7.8s.6,5.6,2.6,7.5,4.3,2.5,7.4,2.1Z"/>
  <path class="st0" d="M543.5,361.5c0,3.1,1.4,5.5,2.8,7.7h-15.8c1.5-2.6,2.7-5.2,2.7-8.2v-36.6s-4.9,0-4.9,0l1.5-4.5,3.4-.3c0-8.2-.6-21.5,7.6-26.1,4.3-2.4,9.2-2.6,13.9-1.5l-1.4,6.2c-1.7-1.7-2.9-2.6-4.7-2.6-4.1.1-5,5-5,8.6v15.4s8.7.1,8.7.1l-.8,4.4-8,.2v37.2Z"/>
  <path class="st0" d="M366.8,369.2h-40c0,0,27.1-44.9,27.1-44.9-4.1-.1-8,0-12,.2s-6.8,2.1-9.8,5.3l1.7-10.3h34.6s-27,44.7-27,44.7c7,.6,14,.4,20.9-1.5s3.4-3.5,5.6-5.3l-1.2,11.7Z"/>
  <path class="st0" d="M106.2,358.3c3.2,5.3,8.7,7.6,14.6,6.2s6.3-3.3,9.5-5.8l-1.2,6.9c-8,5.7-18.7,6.5-26.9.9-7.2-4.9-10.2-13-10.5-21.6-.4-10.8,5.1-20.9,15.3-25s14.7-2,22,.7v10c-2.5-3.1-3.7-5.7-6.7-7.2-6.5-3.1-13.7-.1-17,6.2s-3.7,20.6,1.1,28.5Z"/>
  <path class="st0" d="M302.3,369.2c1.6-2.6,2.7-5.2,2.7-8.5v-32.6c0-3.2-.8-5.8-2.4-8.8h12.6s.2,6.2.2,6.2c4-3.8,8.4-6.7,14-6.6l-.7,10.4c-2.6-2.9-5.3-3.4-8.8-2.4s-4.7,3.8-4.7,7.2v26.9c0,3,1,5.4,2.8,8.2h-15.8Z"/>
</svg>