<?xml version="1.0" encoding="UTF-8"?>
<svg id="Ebene_1" xmlns="http://www.w3.org/2000/svg" version="1.1" viewBox="0 0 600 524.9">
  <!-- Generator: Adobe Illustrator 30.2.1, SVG Export Plug-In . SVG Version: 2.1.1 Build 1)  -->
  <defs>
    <style>
      .st0 {
        fill: #02df82;
      }
    </style>
  </defs>
  <polygon class="st0" points="302.8 308.8 302.6 262.7 281.1 308.8 266.2 308.8 246.2 263.7 246.1 308.8 227.8 308.8 227.8 232.6 257.5 232.6 277.5 277.6 298.5 232.6 325.5 232.5 325.5 308.8 302.8 308.8"/>
  <polygon class="st0" points="486 308.8 461.3 308.8 432.7 262.2 432.5 308.8 416.5 308.7 416.5 232.6 441.5 232.6 469.9 279 470 232.5 486 232.6 486 308.8"/>
  <polygon class="st0" points="210.9 278 179.3 278.1 179.3 293.6 215.3 293.6 215.4 308.8 156.5 308.8 156.5 232.6 215.4 232.6 215.4 247.7 179.3 247.7 179.2 263.3 210.8 263.3 210.9 278"/>
  <polygon class="st0" points="397.8 278 366.1 278.1 366.1 293.6 402.3 293.6 402.2 308.8 343.4 308.8 343.4 232.6 402.2 232.6 402.3 247.7 366.1 247.7 366.1 263.3 397.7 263.3 397.8 278"/>
  <path class="st0" d="M549.3,305.8c-10.2,7.6-37.6,5.7-49.8,2v-15c7.2,1.8,32.8,8,36.5-.3.6-1.3.3-3.6-.5-4.8-1.5-2.4-3.7-3.5-6.2-4.6-6.7-2.9-13.5-5.1-20-8.8s-10.5-11.8-10.7-19.6c-.3-8.2,3.9-15.2,11-18.9,13.5-7.1,30.8-5.4,44.9-.9v14.4c-8.8-2.2-22.3-6.3-30.9-2.4s-2.9,2.5-3.1,3.9.6,4.2,2.2,5l23,11c6,2.9,10.5,7,12.3,13.8,2.3,9.1-.9,19.4-8.7,25.2Z"/>
  <path class="st0" d="M81,310.2c-12.8,1.5-25,.9-37.5-2.4v-15c9.8,2.2,24.3,6,33.3,2.5s4.3-4,3-6.8-3.4-4-5.9-5.1c-6.8-2.9-13.5-5.3-20-8.7-6.8-3.6-10.5-11-11.2-18.5s3.9-17.2,12.2-21c13.5-6.3,29.7-4.7,43.6-.3v14.4c-8.7-2.2-22.4-6.4-30.9-2.4s-3,2.6-3.1,4.3.9,3.8,2.5,4.6l26.5,12.9c5.3,2.6,8.1,8.7,9,14.3,1.3,8.6-2.3,17.3-9.1,22.6s-7.9,3.4-12.4,4.5Z"/>
  <polygon class="st0" points="138.4 308.8 115.6 308.8 115.6 232.6 138.4 232.6 138.4 308.8"/>
</svg>