<?xml version="1.0" encoding="UTF-8"?>
<svg id="Ebene_1" xmlns="http://www.w3.org/2000/svg" version="1.1" viewBox="0 0 600 524.9">
  <!-- Generator: Adobe Illustrator 30.2.1, SVG Export Plug-In . SVG Version: 2.1.1 Build 1)  -->
  <defs>
    <style>
      .st0 {
        fill: #02df82;
      }
    </style>
  </defs>
  <path class="st0" d="M435,352.7c-70,30.4-161.4,30.2-231.2-.7-33.5-14.8-66.9-39.5-81-74.4-8.7-21.7-8.3-45.4,1.1-66.8,16.5-37.6,55.2-62.9,92.4-76.9s99.7-21.9,148.9-14.9c33.4,4.8,67.3,15.4,96.1,33,23,14.1,43.8,33.3,54.9,58.3,9.7,21.7,10.1,45.8,1.1,67.8-14.4,35.2-48.4,59.9-82.3,74.7ZM272.9,212.5c1.5-11.3,3.7-22.1,6.8-33,2.8-9.1,6-17.7,10.5-26.1,3.3-6,7-11,11.9-16.2-32.5,2-57.3,6-85.9,20.9-4.3,2.2-7.7,5.8-10.4,9.5-3.9,5.4-3.7,11.9,0,17.2s6.1,6.7,9.9,9.4c16.6,10.4,37.7,15.2,57.3,18.2ZM424.4,194.5c4-2.8,7.4-5.6,10-9.3,4.1-5.8,3.8-12.8-.6-18.4-16.5-21-69.6-28.4-95.6-29.4,4.5,4.9,8,9.5,11.1,14.9,4.2,7.6,7.3,15.2,10,23.5,3.8,12,6.3,24,8,36.8,19.4-3,40.2-7.7,57.1-18.1ZM347.9,214.8c-1.9-15.7-5.3-31.8-13-45.3-2.2-3.3-4.6-6.3-7.7-8.6-4.6-3.3-10.1-3.1-14.6.3s-5.8,6-8,9.6c-7.2,13.4-10.4,28.8-12.3,44,18.7,1.5,36.7,1.5,55.6,0ZM332.6,362.7c48.9-1.8,105.3-19.6,138.1-57,30.1-34.4,30.8-77.9.8-112.8-3.1,13.3-13.9,21.6-24.6,28.2-23.1,13.3-50.7,19.7-77.3,23.4.1,29-3.3,58.5-13.8,85.4-5.4,12.9-11.3,24-23.1,32.8ZM284.8,330.7c-10.7-27.1-14.2-57-14.1-86.2-25.8-3.6-52.2-9.7-75-22.1-11.2-6.5-22.5-14.8-26.6-28-20.9,25.1-27.3,57.3-13.6,87.2,10.5,22.9,29.8,40.3,51.3,52.9,30,17.5,66,26.5,101,28.2-11.3-7.6-17.8-19.7-23-31.9ZM312.7,317.4c4.6,3.5,10.2,3.5,14.6.2s6.2-6.2,8.5-10.1c3.5-6.4,5.8-12.9,7.8-20.1,3.5-13.3,5.2-26.7,5.6-40.8-19.3,1.3-38.2,1.4-58.1,0,.3,13.6,2,26.8,5.3,39.9,1.9,7.3,4.3,14,7.7,20.5,2.3,3.9,4.8,7.6,8.5,10.4Z"/>
</svg>