<?xml version="1.0" encoding="UTF-8"?>
<svg id="Ebene_1" xmlns="http://www.w3.org/2000/svg" version="1.1" viewBox="0 0 600 524.9">
  <!-- Generator: Adobe Illustrator 30.2.1, SVG Export Plug-In . SVG Version: 2.1.1 Build 1)  -->
  <defs>
    <style>
      .st0 {
        fill: #02df82;
      }
    </style>
  </defs>
  <path class="st0" d="M320.2,295.4h-61.3c-.2-8.1-.8-17.6,7.9-20.7s6.5-1.6,9.9-1.7h16.8c4.7-.1,9.3-1,13.5-2.7,15.1-6,18.5-24,14.1-37.9-3.8-12.4-15.3-18.1-27.5-18.2h-55.2s0,17.2,0,17.2h49.3c3.4,0,6.9,1,9.7,2.6s4.3,5.9,4.3,9.6c0,4.8-2.3,8.7-7,10s-5.6,1.1-8.4,1.1h-16.8c-12.6.1-24.8,5-29.3,17.7s-2.4,8.8-2.4,13.5v26.1s82.4,0,82.4,0c-21.4,42-66.3,65.1-112.5,58.8-43.8-6-80.5-38.7-91-82.2-13.1-54.3,16.5-109.2,68.4-128.3s110.3,3.6,135.3,53.8h46.9c6.2,0,12.1,1.1,17.8,3.1,9.2,3.1,16.4,9.6,20.4,18.5,1.9,4.2,3,8.5,4.2,12.9-.1-13.1,3.9-26.3,16.9-31.5s9.1-2.9,13.9-2.9h46.4s0,17.2,0,17.2h-38.4c-3.1,0-6.1.6-9,1.6-10.1,3.4-8.7,14.4-9,23.4h49.1s0,17.1,0,17.1h-49s0,38.5,0,38.5h-20.8s-.3-30.8-.3-30.8c-3.7,16.5-16,28.5-32.7,30.4s-6.1.6-9.4.6h-47.2s.1-16.9.1-16.9ZM387.5,247.1c-1-4.8-3.3-8.8-6.9-11.7-3.8-2.4-8.1-3.8-12.7-3.8h-26.3c0,0,0,63.4,0,63.4h26.2c4.4,0,8.6-1.4,12.3-3.5,11.2-7.2,9.7-33.4,7.4-44.3Z"/>
</svg>