<?xml version="1.0" encoding="UTF-8"?>
<svg id="Ebene_1" xmlns="http://www.w3.org/2000/svg" version="1.1" viewBox="0 0 600 524.9">
  <!-- Generator: Adobe Illustrator 30.2.1, SVG Export Plug-In . SVG Version: 2.1.1 Build 1)  -->
  <defs>
    <style>
      .st0 {
        fill: #02df82;
      }
    </style>
  </defs>
  <path class="st0" d="M194.4,140.2c11.7,1.9,23.1,5.5,33,13.6,9.7-7.8,21.1-11.8,33-13.6h12.9c11.7,1.9,23.1,5.6,32.9,13.6,9.8-7.9,21.2-11.8,33.1-13.6h12.9c11.7,1.9,23.1,5.7,32.8,13.7,9.8-8,21.3-11.8,33.2-13.7h12.4c30.1,3.6,54.1,26.6,57.1,57.5,2.5,26.1-11.8,52-36.1,63.3s-47.6,7.3-66.6-7.5c-23,18.1-55.5,18.2-78.7,0-23.1,18.2-55.6,18.2-78.8,0-19.3,15.1-44.8,17.9-67.2,7.2s-33.3-29.3-35.8-51.7v-10.9c3.5-31,26.6-54.2,57.5-58h12.4ZM216.9,164.3c-21.2-15.2-49.2-11.4-65.6,7.4-16.4,18.7-16,47,1.1,65.3,16.7,17.9,44.5,20.9,64.6,6.1-18.4-23.5-18-55.7,0-78.8ZM295.6,243c-18.4-23.7-17.9-55.9,0-78.8-17.4-12.5-40.3-12.6-57.7,0,18.2,23.1,18.2,55.6,0,78.8,17.3,12.7,40.7,12.5,57.6,0ZM374.3,243.1c-18.4-23.7-17.9-55.9,0-78.8-17.3-12.5-40.3-12.6-57.7,0,18.2,23.2,18.2,55.6,0,78.8,17.4,12.7,40.7,12.5,57.6,0ZM395.5,243.1c21.1,15.2,49,11.4,65.3-7,16.6-18.7,16.4-46.9-.4-65.2-16.7-18.4-44.7-21.4-65-6.5,18.3,23.4,18,55.5,0,78.8ZM227.5,232.5c12.9-17.6,12.4-41,0-57.7-12.7,17.3-12.6,40.8,0,57.7ZM306.2,232.5c12.9-17.6,12.4-40.9,0-57.7-12.8,17.2-12.6,40.9,0,57.7ZM384.9,232.6c12.7-17.3,12.7-40.5,0-57.7-12.6,16.8-12.8,40.5,0,57.7Z"/>
  <path class="st0" d="M237.7,352.3h-41.9s-6.6,10.9-6.6,10.9h-22.4c0,0,38.6-57.9,38.6-57.9l-6.7-8.1h24.7c0,0,44,65.8,44,65.8l-23,.2-6.7-10.9ZM229.8,339.4l-13.2-21.7-13.1,21.7h26.3Z"/>
  <path class="st0" d="M390.9,360.3c-13.3,5.7-31.9,6-45.2.4s-12.4-8.4-14.6-15.6,1.2-19.5,9.7-24.8,21.8-8,32-5.1l-16-17.9h23.1c0,0,17.5,22.1,17.5,22.1,2.1,2.9,3.9,5.7,5.5,8.8,6,12.4.7,26.7-12,32.2ZM382.7,347c4.7-4.5,4.5-11.1.2-15.5-7.2-7.3-22.3-7.3-29.6-.3s-3.9,5.3-3.7,8.5,1.8,5.9,4.3,8c7,5.8,21.6,6.3,28.9-.7Z"/>
  <path class="st0" d="M325.3,315.6v28.7c-.2,3.6-1.1,6.9-2.9,10-6.9,9.3-17.4,10.4-28.3,10.4-13.6,0-29.2-3.5-30.5-19.6v-29.5s19.6,0,19.6,0v26.7c.5,3.6,1.5,7,4.8,8.6s8.5,1.8,12.4.3,5.3-4.5,5.5-8.3v-27.3c0,0,19.5,0,19.5,0Z"/>
  <polygon class="st0" points="430.7 363.1 410.6 363.2 410.6 314.9 430.7 314.9 430.7 363.1"/>
</svg>