<?xml version="1.0" encoding="UTF-8"?>
<svg id="Ebene_1" xmlns="http://www.w3.org/2000/svg" version="1.1" viewBox="0 0 600 524.9">
  <!-- Generator: Adobe Illustrator 30.2.1, SVG Export Plug-In . SVG Version: 2.1.1 Build 1)  -->
  <defs>
    <style>
      .st0 {
        fill: #02df82;
      }
    </style>
  </defs>
  <path class="st0" d="M114.6,325v-111.8c11.2-.4,22.4-.4,33.7-.1,10,.2,18,6.5,21.1,15.8,3.6,11.7,3.6,29.7-8.5,37.2,9.9,5.8,11.6,16,11.6,26.3,0,6.3-.8,12.3-3.4,18.1-3.5,8-10.8,14.1-20,14.2l-34.6.3ZM151.4,236.3c-1.1-3.3-4-5.9-7.5-5.9h-10.5s0,28.2,0,28.2h10.5c8.6,0,10.3-14,7.5-22.4ZM153,283.5c-1-4.3-4.5-7.3-8.8-7.4h-10.7c0,0,0,31.4,0,31.4h10.5c11.4,0,10.8-17.2,9.1-24Z"/>
  <path class="st0" d="M376.6,325.5h-14.1c-10.6-2.9-20-7.5-20.8-20.5v-92s18.6,0,18.6,0v87.6c0,3,1.4,5.3,4,6.6s7,1.5,10.2,0,4.2-3.6,4.2-6.7v-87.7s18.6,0,18.6,0v92.4c0,6.4-3.8,11.6-8.7,15.1-3.8,2.6-7.9,3.6-12,5Z"/>
  <path class="st0" d="M304.6,276.2h-24c0-.1,0,48.8,0,48.8h-18.6c0,0,0-127.2,0-127.2,0-8.4,5.5-15.2,12.7-18.5,10.4-4.8,25.1-4.8,35.6,0s12.8,10.3,12.8,18.9v126.7c-6.2.4-12.4.4-18.5,0v-48.6ZM304.7,258.6v-56c-.2-3.9-2.4-7-6.2-8.2-6.9-2.1-17.8-.6-17.8,7.7v56.6s24-.1,24-.1Z"/>
  <path class="st0" d="M244.5,324.9h-18.9s0-36.8,0-36.8c0-5.2-2.7-12.1-9.3-12h-9.7c0,.1,0,48.9,0,48.9h-18.6s0-111.9,0-111.9h33.7c10.1.2,18,6.7,21.1,16.1,3.4,11.5,3.5,29.8-8.5,37,8.4,4.7,9.7,10.6,10.2,19.5v39.3ZM224.6,252.8c2.8-7.6,2-22.5-7.7-22.4h-10.1c0,0,0,28.3,0,28.3h11.1c3-.2,5.6-3,6.7-5.9Z"/>
  <path class="st0" d="M452.7,236.1c0-5.3-7.5-8.2-13.7-5.8s-4.6,3.3-4.6,6.3v88.2s-18.7.2-18.7.2v-91.7c0-7.2,4-13.2,10.1-16.7,11-6.2,24.6-6.2,35.7,0s10,8.7,10,15.3l.2,93-18.9-.2v-88.7Z"/>
</svg>