<?xml version="1.0" encoding="UTF-8"?>
<svg id="Ebene_1" xmlns="http://www.w3.org/2000/svg" version="1.1" viewBox="0 0 600 524.9">
  <!-- Generator: Adobe Illustrator 30.2.1, SVG Export Plug-In . SVG Version: 2.1.1 Build 1)  -->
  <defs>
    <style>
      .st0 {
        fill: #02df82;
      }
    </style>
  </defs>
  <path class="st0" d="M530.5,305.9h-41.8c0,0-18.3-31.5-18.3-31.5l20.8-36h36.8c0,.1,20.7,36,20.7,36l-18.1,31.5ZM527.5,287.8c2.5,0,4.5-.2,6.8-.6-.8-1.9-1.2-3.1-2.1-4.6l-19.3-33.4c-1-1.8-1.9-2.9-3.3-4.9-1.3,1-2.2,2.1-3.1,3.5l-19.1,33.1c-1.2,2-1.9,3.7-2.9,6.2,1.5.3,2.7.7,4.1.7h38.8Z"/>
  <path class="st0" d="M148.4,283.5l-1.4-16-7.9,25.8c-2.3.3-4.5.3-7,.1l-8-25.8-2.3,25.8h-7.3c0,0,3.5-35.7,3.5-35.7h10.4s7.4,23.8,7.4,23.8l7.3-23.8h10.3s3.5,35.6,3.5,35.6h-7.7c0,0-.9-9.9-.9-9.9Z"/>
  <path class="st0" d="M197.5,267.7c-.6.9-.8,1.9-1.1,3.1l-6.9,22.6h-6.9c0,0-8.1-26.1-8.1-26.1l-.9,9.9-1.4,16.2h-7.3c0-.1,3.5-35.8,3.5-35.8h10.4s7.4,23.9,7.4,23.9l7.3-23.8h10.3s3.5,35.7,3.5,35.7h-7.7s-2.2-25.7-2.2-25.7Z"/>
  <path class="st0" d="M415.3,293.4c-2.5.2-4.6.2-6.9,0l-15.3-22.4-.3,22.6h-7.1c0,0,0-35.6,0-35.6h7.4c0-.1,15,22,15,22v-22.2c.1,0,7.2,0,7.2,0v35.6Z"/>
  <path class="st0" d="M85.6,293.6c-7.7-1.7-12.9-8.2-13.6-15.8s1.6-11.6,5.8-15.6,10.1-5.6,16-4.7,13.1,6.4,14.7,13.7c1.4,6.5-.3,13-4.8,17.5-4.6,4.7-11.1,6.6-18.1,5ZM96.6,284.9c5.6-4.7,5.6-13.4.3-18.1s-9-3.2-12.5-.4c-5.8,4.6-5.9,13.7-.3,18.5s8.9,3.1,12.5,0Z"/>
  <path class="st0" d="M342.1,282.8c.2,7.8-7.3,10.7-13,10.7h-13.9s0-35.9,0-35.9h14.7c5.6.1,10.8,3.1,10.7,9.2s-1.9,6.1-5.7,8c4.5.9,7.2,3.5,7.3,7.9ZM332.4,268.4c.1-1.6-1.1-3.8-3-3.9s-4.3-.2-6.7-.2v8.2c3.8,0,9.4.9,9.7-4ZM330.6,286.8c2.7,0,3.9-2.4,3.8-4.4s-1.8-3.5-4-3.6h-7.6c0-.1,0,8.2,0,8.2l7.9-.2Z"/>
  <path class="st0" d="M276.3,293.4h-8.8c0,.1-7.4-12.4-7.4-12.4-.4-.6-2.4-.6-3-.2v12.7c0,0-7.6,0-7.6,0v-35.7s11.5,0,11.5,0c1.9,0,4.3.5,6.1.8,5.3,1.1,7.9,5.4,7.9,10.6s-2.6,8.1-7.2,9.9l8.6,14.3ZM263.6,273.7c2.6-.5,3.7-2.6,3.6-4.8-.1-5.1-6.1-4.7-10.2-4.6v9.7c2.3,0,4.5,0,6.5-.3Z"/>
  <path class="st0" d="M369.9,286.6h-14.6c0,0-2.4,6.7-2.4,6.7-2.2.4-4.9.4-7.6,0l12.7-35.7h9.5c0,.1,12.6,35.7,12.6,35.7l-8,.2-2.3-7ZM367.6,279.9l-5.1-15-5.1,15.1h10.2Z"/>
  <polygon class="st0" points="440 274.3 453 293.5 443.8 293.6 431.9 276.4 431.7 293.6 424.4 293.5 424.4 257.8 431.8 257.7 431.9 273.9 443 257.7 451.7 257.8 440 274.3"/>
  <polygon class="st0" points="237.5 278.7 224.1 278.9 224 286.7 239.8 286.8 239.7 293.6 216.5 293.6 216.5 257.7 239.3 257.7 239.4 264.4 224.1 264.5 224 272.1 237.3 272.2 237.5 278.7"/>
  <path class="st0" d="M306.5,293.6h-24.8c0-2.1-.1-4.3,0-6l14.9-23-14.5-.2v-6.7s24,0,24,0v6.1s-14.6,22.8-14.6,22.8h14.9c0,.1,0,6.9,0,6.9Z"/>
  <path class="st0" d="M51.4,285.6c4.2,2.4,9.2,1.2,12.5-2l4.7,4.8c-3.7,4.2-9,6.2-14.6,5.7s-10.2-3-13.1-7.8c-5-8-3.7-18.4,3.4-24.6s17.1-6.1,23.9.6l-4.8,5.2c-3.4-2.8-7.5-3.7-11.2-2.1s-5.7,5.4-5.8,9.6,1.1,8.4,5,10.7Z"/>
</svg>