<?xml version="1.0" encoding="UTF-8"?>
<svg id="Ebene_1" xmlns="http://www.w3.org/2000/svg" version="1.1" viewBox="0 0 600 524.9">
  <!-- Generator: Adobe Illustrator 30.2.1, SVG Export Plug-In . SVG Version: 2.1.1 Build 1)  -->
  <defs>
    <style>
      .st0 {
        fill: #02df82;
      }
    </style>
  </defs>
  <path class="st0" d="M341.9,303c-4.5,2.4-12,8.1-17.1,4.5s-3.5-6.1-2.9-10.1l-11.9,7.9c-3.6,2.4-9.6,5.3-13.2,2.1-6.5-5.8,5.3-17.4,9-21.7l24.4-28.5h13.6c0,.1-39,42.7-39,42.7-.3.4-.3,1.9,0,2.2,1.8,2.2,16.2-6.9,18.8-10.5,6.2-8.6,11.6-17.1,20.1-23.6s16.3-10.4,26-11.8,5.8.9,7.5,3.9l58.7-65.6,13.7.2-93.4,100.7c-1.4,1.5-3.5,2.7-2.9,5s3.1.6,4.2,0c7.9-4.3,14.3-10.1,20-17.1,7.4-9.1,15.9-16.9,26-22.8s17.8-8.3,20.3-1.1-.7,5.8-1.9,9.1c5.6-.4,11.5-1.8,16.3-4.7l69.8-72.5c2.4-2.5,7.7-6.2,10.7-3.8,3.7,2.9-1.6,12.5-3.8,16-7,11.2-15.5,20.9-24.7,30.4-15.4,15.7-25.6,23.6-45.8,33l-24.6,27h17.9c0,0,99.9-104.1,99.9-104.1,2.4-2.5,7.8-5.3,10.5-2.4s1.2,2.7.8,4c-4,13.9-23.4,35.9-34.3,45.8l-19.6,17.8c-5.5,5-11.2,9.2-17.4,13.3-16,10.4-15.7,10.4-28.7,25.5,15,.2,28.9-.8,43.3-2.3l20.5-2.1-8,8.9h-60.3s-19.5,21.8-19.5,21.8h59.4c-1.4,1.9-2.5,3.1-4.1,4.5h-59.4c0-.1-76.2,84-76.2,84l-15.8,1.3c-.1,0-.7-.2-.8-.2s0-.2.4-.6l79.9-84.2c-5.9-.7-11-.4-16.2-.4l-76.4,83.7-16.3,1.1,80.8-84.9H58.7c-.5-.3-.7-.3-.6-.4s.5-.6.6-.7l2.9-2.8h87.1c0,0,235.5-.3,235.5-.3l45.1-47.3c-4.6,1.2-8.1,2.2-12.4,2.5-9,12.4-16,20.2-29,28.6-4.8,3.1-17.1,9.3-19.6.7-.7-2.3-.4-4.7,0-7.3-5.2,3.5-25,20-26.4,5.6ZM545.1,193.7c.5-.9.2-2.9-.6-3.2s-2.1.1-2.8.9l-66.3,73.4c12.5-8,23.3-17.5,33.9-27.7,13.9-13.4,26.7-26.2,35.8-43.3ZM498.9,219.2c6.3-7.1,11.4-14.2,16-22s1.7-4,.5-5.1-3.1.2-4,1.2l-57.9,63.8c4.3-.7,7.6-3,10.9-5.6,12.5-9.6,23.8-20.3,34.5-32.3ZM413.1,275.5c-1.7-1.5-2.8-3.1-3-4.7-.7-5.8,5.8-7.9,10.9-9.1-3.1-5.5-15.3,4.9-17.8,7.2-4.5,4.1-29.7,28.5-24.6,33.4s31.2-21.5,34.6-26.8ZM342.5,296.9c9.5-8,18-16.7,25.8-26.4s5.8-7.4,4.5-9.5-7.7,1.6-9.5,2.7c-8.2,5.1-15,11.6-21.2,19s-13.1,15.6-10.9,18.9,9.2-3,11.2-4.7ZM413,320.1l20.4-21.6h-17.8s-19.4,21.6-19.4,21.6h16.9Z"/>
  <path class="st0" d="M151.3,248.7c-1.7-12.4-39.2-14.4-58.4,11.9s-3.1,7.2-2,10.5,2.6,3.4,4.4,2.3c-1-2.5-1.1-5.2.3-7.6,2.2-3.7,6.1-6.1,10.5-5.8s6.7,3.4,6.2,7.4c-1,7.6-10.7,11.8-18.3,10.2s-7.2-4.6-7.1-9.3,2.4-9.8,5.9-13.7c12.9-14.3,37.1-24.1,55.4-15.5s8.5,6.4,9.3,11.8c3.5,23.6-30.8,41-49.7,46s-18.3,3.1-27.6,2.5c-6-.4-11.6-2.3-16.5-5.4-17-10.5-13.2-31.7-2.9-46,9.7-13.5,22.8-23.8,38.2-30.5s32.2-11,49.3-12.1c17.4-1.2,34.4,1.9,49.9,9.7,4.4,2.2,7.8,5.3,12,8.1l7.8-7c15.9-14.3,40.8-23.6,61.4-15.1l-6.9.2c-20.9.6-42.3,15.1-55.2,30.9,10.5,18.3,7.3,36.8-6.2,52-18.4,20.8-46.7,28.1-73.8,28.7s-24.8-.2-36.5-.9-1.6-1-1.8-1.4.6-1.6,1.3-1.6c13.9-.5,18,.6,29.8-5.6,10.8-5.7,19.4-13.8,27.7-22.8l31.3-34.2,12.3-13.6c-9.8-11.6-28.2-17.9-42.8-19.3-22.7-2.1-49.4,3-69.4,14.3-14.7,8.3-31.9,25.3-30.7,43.4.5,7.8,6,14.2,13.2,16.8,4.6,1.7,9.2,2.6,14.2,2.6,19.6,0,38.5-6.9,53.5-19.3,6.3-5.2,13.5-13.9,12.2-22.5ZM191.5,289.9c11.1-9,20.2-22.2,19.5-37-.2-3.8-1-7.1-3.4-10.5l-10.8,12.1-28.4,31.4c-6.1,6.7-13.2,12.1-21.4,15.5l-17.8,7.3c22.4,1.2,45.3-4.9,62.3-18.8Z"/>
  <path class="st0" d="M228.5,303c-4.5,3.3-13.7,9-18.6,4.7s-2-11.9.7-16.9c8-14.9,20.7-26.5,36.2-33.2s13.3-2.9,16.9,2l1.9-2.1,12.5.4-38.7,42c2,1.4,3.9.6,5.5-.4,11.7-7.1,21.7-16.2,30.6-26.5l13.4-15.4,12.6.2-29.4,38.6c-.6.8-.5,2.4,0,2.8s2.3.4,3,0c4.6-3.4,8.6-6.9,12.7-11l34.9-35.5c6.2-6.3,12.6-11.7,19.8-16.6s14.3-8.3,18.3-4.1c4.4,4.8-3.4,13.7-9.3,16.3-2.5,1.1-5.5.8-7.3-1.3l-1-3.2c-6.9,1.4-15.7,9.4-20.9,14.2s-12.5,11.9-18.6,18.4c-9.6,10.4-19.6,20-30.8,28.6-2.5,1.9-5.7,3.5-8.7,3.3s-4.7-4.1-4-7.2c1.2-5.3,4.4-9.1,7.2-14.1l-15.5,11.9c-4.1,3.2-16.3,12.1-21.1,10.1s-2.2-3.4-2.4-5.7ZM229.1,296.3c7.5-7.1,14.7-14.3,21.8-21.8s10.9-11.3,8.7-13.2-12.8,3.9-15.9,6.6c-7.8,6.9-15,14.3-21.7,22.4-2.2,2.6-7.3,9.1-4.8,11.9s9.9-4,11.9-5.9Z"/>
</svg>