<?xml version="1.0" encoding="UTF-8"?>
<svg id="Ebene_1" xmlns="http://www.w3.org/2000/svg" version="1.1" viewBox="0 0 600 524.9">
  <!-- Generator: Adobe Illustrator 30.2.1, SVG Export Plug-In . SVG Version: 2.1.1 Build 1)  -->
  <defs>
    <style>
      .st0 {
        fill: #02df82;
      }
    </style>
  </defs>
  <polygon class="st0" points="415.2 249.2 275.5 249.2 275.5 266.3 415.2 266.3 415.2 325 208.2 324.9 208.2 117 415.2 116.9 415.2 172.5 275.5 172.5 275.5 190.2 415.2 190.2 415.2 249.2"/>
  <path class="st0" d="M241.9,370.8h-25.3c-.2.9-.2,2.2-.1,3.5h25.5c0,0,0,9.7,0,9.7h-37.4s0-36.2,0-36.2h37.5s0,9.8,0,9.8h-25.5s0,3.5,0,3.5h25.5s0,9.7,0,9.7Z"/>
  <path class="st0" d="M330.2,370.8h-25.3c-.2.9-.2,2.2-.2,3.5h25.5c0,0,0,9.7,0,9.7h-37.5s0-36.2,0-36.2h37.6s0,9.8,0,9.8h-25.5s0,3.5,0,3.5h25.4s0,9.7,0,9.7Z"/>
  <polygon class="st0" points="377.6 383.9 362.9 384.1 354 372.5 349 378.1 348.9 384 336.2 384 336.2 347.9 348.9 347.8 349.1 359.6 359.5 347.9 375.4 347.9 362.5 364.3 377.6 383.9"/>
  <path class="st0" d="M286.5,375.5c-3.8,6-10.1,8.6-17,8.5h-19.9c0,0,0-36.2,0-36.2l23.6.2c5.1,0,9.6,3.1,12.7,6.8,3.8,6.3,4,14,.6,20.7ZM276.7,366.3c.4-4.7-2.7-8.7-7.3-8.7h-8.7s0,16.2,0,16.2c3.3.1,6.2.2,9.2-.1s6.4-3.3,6.8-7.4Z"/>
  <path class="st0" d="M406.6,377.3l-13.6-.2-3,6.8h-11.4c0,0,11.6-37.9,11.6-37.9h16.9s14.2,37.8,14.2,37.8h-11.9c0,.1-2.8-6.6-2.8-6.6ZM402.8,365.8l-3.5-7.2-2.6,7.2h6.1Z"/>
</svg>