<?xml version="1.0" encoding="UTF-8"?>
<svg id="Ebene_1" xmlns="http://www.w3.org/2000/svg" version="1.1" viewBox="0 0 600 524.9">
  <!-- Generator: Adobe Illustrator 30.2.1, SVG Export Plug-In . SVG Version: 2.1.1 Build 1)  -->
  <defs>
    <style>
      .st0 {
        fill: #02df82;
      }
    </style>
  </defs>
  <path class="st0" d="M429.6,274.2v11.4l-.3,3.8-.3,4h-15.7c6.3-51-22.9-99.6-69.9-119-29.1-12-62.2-11.3-90.8,1.9-44.8,20.7-71.8,68-65.6,117.1h-15.7s-.6-8.9-.6-8.9c0-3-.2-6,0-9v-2.5c1.1-18,5.7-35.5,13.9-51.6,13.8-27.2,36.7-48.7,64.7-60.8,32.1-13.8,68.6-14,100.8-.5,45,18.9,76,61.7,79.3,110.5,0,1.3,0,2.4.3,3.4Z"/>
  <polygon class="st0" points="243.6 294.7 243.5 280.6 230.9 292.6 217.4 280.6 217.4 294.7 197.3 294.7 197.3 255.6 217.5 255.6 230.5 270.4 244.3 255.6 263.5 255.6 263.5 294.7 243.6 294.7"/>
  <polygon class="st0" points="406.4 294.7 386 294.7 361.5 277.7 361.5 294.7 340.6 294.7 340.6 255.6 360 255.6 387.2 273.1 387.2 255.6 406.4 255.6 406.4 294.7"/>
  <path class="st0" d="M313,290.8h-21.9s-3.2,3.9-3.2,3.9h-22.2s26-39.1,26-39.1h21.6s25.5,39.1,25.5,39.1h-22.2s-3.6-3.9-3.6-3.9ZM306.2,280.4l-4.3-8.2-4,8.2h8.3Z"/>
  <path class="st0" d="M345,369.7c0,2.3-1.9,4.6-4.1,4.6h-78.9c-2.2-.4-4.1-2.2-4.1-4.6v-47.2c0-2.2,2-4.4,4.3-4.4h78.7c2.3,0,4.1,2.5,4.1,4.6v46.9ZM339.7,369v-45.6s-76.5,0-76.5,0v45.6s76.5,0,76.5,0Z"/>
  <path class="st0" d="M274.6,367.7l.6-4.9-5.1,5h-4.4s2.7-3.9,2.7-3.9h2.1c0,0,7.6-8.8,7.6-8.8h3c0,0,8.5-12.7,8.5-12.7l22.6-3.2,2.5,15.1-19.6-2.8-3.9,3.7-9.7,8.8,2.3,1.6c0,.5,0,1.3,0,2h-9.3Z"/>
  <polygon class="st0" points="324.9 356 315.6 354.5 313 338.9 325.3 324.3 331.6 339.4 329.4 353.2 324.9 356"/>
  <path class="st0" d="M324.7,366.1c.4.3.2,1.5,0,1.8h-7.2s-1.3-8.7-1.3-8.7l-.5-3.8,8.4,1.2-2.6,7.2,3.1,2.2Z"/>
  <path class="st0" d="M337.3,333.5l-2.7-.4c-.7-.1-1.4.2-1.6.9s0,1.5.6,1.6l3,.4-.4,3.2h-3.7c0-.1-5.9-14.3-5.9-14.3.9-.2,1.4-.5,2.4-1v2.8c.1,0,3,1.2,3,1.2.1.8-.2,1.5.9,1.9l.5-1.6,4.3,1.5-.4,3.8Z"/>
  <polygon class="st0" points="313.3 355.3 292.7 355.3 295.4 352.6 313.3 355.3"/>
  <path class="st0" d="M280.7,353.9c-.2.3-1.3.3-1.7.1l6.4-7.2c-1.4,2.5-3,4.6-4.6,7.1Z"/>
</svg>