<?xml version="1.0" encoding="UTF-8"?>
<svg id="Ebene_1" xmlns="http://www.w3.org/2000/svg" version="1.1" viewBox="0 0 600 524.9">
  <!-- Generator: Adobe Illustrator 30.2.1, SVG Export Plug-In . SVG Version: 2.1.1 Build 1)  -->
  <defs>
    <style>
      .st0 {
        fill: #02df82;
      }
    </style>
  </defs>
  <path class="st0" d="M340.2,431.9l-17.7,1c-5.3-.4-10.4-.3-15.7,0-3.9-.3-7.6-.5-11.5-.6-8.8-.2-17-2.2-25.5-4.5-65.1-17.6-113.9-73.2-123.4-140-.8-8.9-.7-17.4-.9-26.4-.5-18,2.2-35.6,8.1-52.6,17.6-51.5,58-91,109.8-107.7,12.4-4,24.7-6.4,37.9-6.8s27.4-.2,41.3,1.2c58.7,9.3,108.4,49.9,130.4,105,7.4,18.6,10.9,34.6,10.8,54.7v7s0,4.9,0,4.9l-.3,12.3c-1.6,75.2-77,148.7-143.4,152.6ZM181.2,335.8l106-82.8c3.5-2.2,4.4-5.3,5-9.2l18.3-132.5c-50.2,1.2-96.3,27.9-123.2,69.1s-27.5,64-23.7,98.8,7.6,38.9,17.6,56.6ZM448.9,335.5c19.6-36.4,23-77.9,11.6-116.3-5.1-16.2-12.6-31.3-22.4-45.1-27.3-38.2-70.8-61.2-118.5-62.9l19,135.9c.3,1.8,1.4,3.3,2.7,4.4l107.6,83.9ZM359.6,409c35.4-10.8,64.5-33.4,84.3-65l-126.9-51.5c-1.9-.8-3.1-.6-5,.2l-125.8,51.7c20.5,32,50.1,55.1,86.1,65.2,30.1,8.1,57,8.8,87.3-.6Z"/>
</svg>