<?xml version="1.0" encoding="UTF-8"?>
<svg id="Ebene_1" xmlns="http://www.w3.org/2000/svg" version="1.1" viewBox="0 0 600 524.9">
  <!-- Generator: Adobe Illustrator 30.2.1, SVG Export Plug-In . SVG Version: 2.1.1 Build 1)  -->
  <defs>
    <style>
      .st0 {
        fill: #02df82;
      }
    </style>
  </defs>
  <path class="st0" d="M403.5,318.6c-21.1,33.1-57.5,52.9-96.4,53-39,0-75.5-19.8-96.7-53h-40.9s-16.5-16.6-16.5-16.6h48.4c-2.5-6.5-4.4-12.3-6.1-18.8h-61.3s-16.5-16.6-16.5-16.6h75.1c-.4-6.2-.4-12.2,0-18.8h-94.1s-16.4-16.6-16.4-16.6h113.1c1.6-6.5,3.5-12.5,6-18.8H63.6s-16.3-16.6-16.3-16.6h163.1c21.1-33.3,57.6-53.1,96.4-53.2,39,0,75.7,19.7,96.9,53.2h164.1s-16.4,16.7-16.4,16.7h-138.7c2.3,6.2,4.4,12.2,5.9,18.7h114s-16.5,16.7-16.5,16.7h-94.9c.5,6.3.4,12.4,0,18.8h76s-16.5,16.7-16.5,16.7h-62.1c-1.6,6.5-3.5,12.4-6,18.7h49.3c0,0-16.4,16.7-16.4,16.7h-41.8ZM303.6,159.5c-54.3,2.2-96.2,48.3-93.8,102.1,2.4,53.7,47.9,95.6,101.7,93.3,53.8-2.2,95.9-47.8,93.6-101.8-2.2-53.3-47.4-95.7-101.5-93.6Z"/>
  <polygon class="st0" points="274.5 282.9 274.2 245.7 262.8 282.9 251.5 282.9 240 245.4 239.8 282.9 228.9 282.8 228.9 231.3 243.9 231.3 257.2 271.3 270.4 231.3 285.4 231.3 285.4 282.8 274.5 282.9"/>
  <polygon class="st0" points="363.2 282.9 350.9 283.2 330.5 247.4 330.2 282.9 320.1 282.9 320.1 231.3 332.2 231.3 352.8 268.7 353.1 231.3 363.2 231.3 363.2 282.9"/>
  <polygon class="st0" points="307.9 282.8 297.4 282.8 297.4 231.3 307.9 231.3 307.9 282.8"/>
  <polygon class="st0" points="385.6 282.8 375.2 282.8 375.2 231.3 385.6 231.3 385.6 282.8"/>
</svg>