<?xml version="1.0" encoding="UTF-8"?>
<svg id="Ebene_1" xmlns="http://www.w3.org/2000/svg" version="1.1" viewBox="0 0 600 524.9">
  <!-- Generator: Adobe Illustrator 30.2.1, SVG Export Plug-In . SVG Version: 2.1.1 Build 1)  -->
  <defs>
    <style>
      .st0 {
        fill: #02df82;
      }
    </style>
  </defs>
  <polygon class="st0" points="141.1 336.3 84.1 285.5 84 327.9 50.5 327.9 50.6 205.9 107.7 257.7 107.8 213.3 141.2 213.3 141.1 336.3"/>
  <polygon class="st0" points="402 282.4 365 282.4 365 297.4 402 297.4 402 327.9 331.5 327.9 331.5 213.3 402 213.3 402 243.9 365 244 365 258.4 402 258.4 402 282.4"/>
  <path class="st0" d="M493.3,315.6h-43.6s-6,12.3-6,12.3h-38.6s66.4-117.6,66.4-117.6l66.6,117.5h-38.6c0,0-6.2-12.2-6.2-12.2ZM482.4,294l-10.9-21.1-11,21.3h21.9Z"/>
  <polygon class="st0" points="288.8 213.3 324.4 213.3 263 330.7 201.5 213.3 237.2 213.2 263 262.6 288.8 213.3"/>
  <polygon class="st0" points="194.4 327.9 161 327.9 161 213.3 194.4 213.3 194.4 327.9"/>
  <path class="st0" d="M485.7,210.2c3.5-1.3,7.1.6,8.1,3.7s-.3,7.1-3.7,8.3-6.8-.3-8.1-3.5,0-7.2,3.7-8.5ZM490.2,221c1.9-1.1,3-3.1,3-4.9s-1.3-3.7-3.1-4.6-4.9-.2-6.3,1.6-1.3,4.6.2,6.5,3.9,2.7,6.3,1.4Z"/>
  <path class="st0" d="M490.2,221c-2.3,1.3-4.9.4-6.3-1.4s-1.7-4.6-.2-6.5,4-2.9,6.3-1.6,3.1,2.8,3.1,4.6-1.1,3.9-3,4.9ZM490.9,219.1l-.8-2.6.7-2.2c.1-.4-.9-1.4-1.4-1.4h-4.4c0,0-.1,5.7-.1,5.7,0,.5.6,1.3,1,1.3,1.9,0,.4-4.1,2.1-2.6s.7.8.8,1.2l.6,1.4c0,.2,1.5-.5,1.4-.7Z"/>
  <path class="st0" d="M490.9,219.1c0,.2-1.3.9-1.4.7l-.6-1.4c-.1-.3-.5-.9-.8-1.2-1.7-1.5-.3,2.7-2.1,2.6s-1-.8-1-1.3v-5.7c.1,0,4.5,0,4.5,0,.5,0,1.5,1,1.4,1.4l-.7,2.2.8,2.6ZM487.1,214.3c-.3.4.1,1.8.5,1.7l1.2-.5c.4-.1,0-1.1-.3-1.4s-1.2,0-1.3.2Z"/>
  <path class="st0" d="M487.1,214.3c.2-.3,1.2-.4,1.3-.2s.7,1.2.3,1.4l-1.2.5c-.4.1-.7-1.3-.5-1.7Z"/>
</svg>