<?xml version="1.0" encoding="UTF-8"?>
<svg id="Ebene_1" xmlns="http://www.w3.org/2000/svg" version="1.1" viewBox="0 0 600 524.9">
  <!-- Generator: Adobe Illustrator 30.2.1, SVG Export Plug-In . SVG Version: 2.1.1 Build 1)  -->
  <defs>
    <style>
      .st0 {
        fill: #02df82;
      }
    </style>
  </defs>
  <path class="st0" d="M233.7,321.9h-27.2c0,0-.3-7-.3-7-3.8,3.6-7.5,6.3-12.3,7.6-6.9,1.9-14.1,1.8-20.9-.4-11.4-3.7-17.4-13.8-17.7-25.6v-56.9s27.9,0,27.9,0v50.7c.4,6.3,5.3,10.8,11.5,10.7,6.4,0,11.3-4.7,11.6-11.2v-50.2s27.4,0,27.4,0v82.4Z"/>
  <path class="st0" d="M110.9,260.6c-3.9-2.4-8.6-2.3-12.5,0s-6,5.6-6,10v51.3c0,0-27,0-27,0v-82.4s26.8,0,26.8,0l.4,6.4c9.2-7.6,20.7-10,32-6.8,11.5,3.2,18.8,12.8,19.5,24.9v58s-27.6,0-27.6,0v-51.3c-.5-4.1-2-7.8-5.7-10.1Z"/>
  <path class="st0" d="M293.5,301.2v20.7s-23.5,0-23.5,0c-10.5,0-19.9-7.9-20-18.8l-.3-41.8h-11.3c0-.1,0-21.8,0-21.8h11.4c0-.1,0-17.5,0-17.5l27.6-9.8v27.2c0,0,16.1.1,16.1.1v21.7s-16.1,0-16.1,0v33.6c.2,3.7,3.2,6.4,6.4,6.1h9.6Z"/>
  <polygon class="st0" points="416.5 321.9 388.4 322 388.4 211.5 416.5 211.5 416.5 321.9"/>
  <polygon class="st0" points="455.8 321.8 427.8 322 427.8 211.5 455.8 211.5 455.8 321.8"/>
  <path class="st0" d="M553.1,239.5h-28.4s-.3,4.6-.3,4.6c-8-5.4-17.5-7.4-27.1-6.4-22.6,2.4-38.8,21.6-37.6,44.3,1.5,27.8,25.8,45.9,52.5,40.8,4.5-.9,8.4-2.9,12.1-5.4l.5,4.5h28.3c0,0,0-82.5,0-82.5ZM518,295.8c-6.1,4.7-14,4.9-20.2.6-5.5-3.8-8.5-10-8.3-16.4.2-6.3,3.4-12.4,9-15.9,5.7-3.6,12.6-3.5,18.2,0,5.3,3.4,8.4,9.1,8.8,14.9.4,6.4-2.2,12.5-7.5,16.7Z"/>
  <path class="st0" d="M378.3,261.1c-6.1-13.4-18.4-22.3-33.1-23.9-18.9-2.1-37.3,7.6-45.5,24.8-9.9,20.8-1.5,45.7,18.6,56.7,11.8,6.5,25.7,7.5,38.4,2.7,12.2-4.9,20.9-15,24.4-27.9h-28.5c-5.1,8.2-15.6,10.3-23.4,5-3.1-3-4.7-6.4-5.1-10.7h57.7c1.7-9.4.2-18.3-3.6-26.7ZM325.2,270.6c.8-7.3,7.5-12.2,14.9-11.7,6.4.4,11.9,4.1,13.1,11.6h-27.9Z"/>
</svg>