<?xml version="1.0" encoding="UTF-8"?>
<svg id="Ebene_1" xmlns="http://www.w3.org/2000/svg" version="1.1" viewBox="0 0 600 524.9">
  <!-- Generator: Adobe Illustrator 30.2.1, SVG Export Plug-In . SVG Version: 2.1.1 Build 1)  -->
  <defs>
    <style>
      .st0 {
        fill: #02df82;
      }
    </style>
  </defs>
  <path class="st0" d="M158.4,180.8c-16.5,54.8-59.9,97.6-114.4,113.5-24.1-32.9-20.3-77.8,8.2-106.1s73.6-32,106.3-7.4Z"/>
  <path class="st0" d="M83,288.7l29.5-6.6c16.8-3.8,35.3-9.3,48.3-20.7s23.3-36.7,17.6-58.5c7.4,11,11.2,23.6,12.3,36.4,3,35.1-17.2,67.8-48.8,81.5-33,14.3-71.4,5.5-94.9-22.4,12-3.9,23.6-6.9,35.9-9.7Z"/>
  <path class="st0" d="M239.6,307.7c0,1-.9,2.1-1.7,2.2h-9.7c-.8,0-1.8-.9-1.8-1.9v-55.6c0-5.9.3-11.5,1.8-17,5.2-19.3,23.7-30.9,43.3-27.5,23.6,4,36.9,28.1,29.9,50.9-4.2,13.5-15.6,23.3-29.6,25.4-11.8,1.8-23.1-2.1-32.1-10.2v33.8ZM260,271.4c9.3,1.9,18.5-1.3,24.1-8.8,6.6-9,7-21.1,1.2-30.7-6.4-10.4-19.5-14.5-30.6-9.3-9.6,4.5-14.9,14.3-14.7,24.8.2,11.9,8.1,21.6,20,24Z"/>
  <path class="st0" d="M340.9,269.2c10.4,5.1,22.3,2.7,29.7-6s2.2-1.1,2.9-.7l8.7,4.4c1.1.6,1.9,2.1,1,3.3-6.2,7.8-15,12.4-24.9,13.9-14.3,2.2-28.7-3.1-37.2-15-8.5-11.9-9.6-27.7-3.2-40.7s17.1-19.4,30.1-20.8c23.4-2.4,41.5,16.5,41.7,38.9s-1.9,2.2-2.7,2.6c-7.3,3.5-15.2,5.4-23.4,5.4-13.4,0-23.4-4.7-35.3.7,1.9,6.3,6.6,11,12.7,14ZM376.6,239.7c-2.8-9.5-10.4-17.1-20.3-19-14.5-2.8-28.4,7.9-30,22.6,18.9-6.5,32.1,1.8,50.2-3.6Z"/>
  <path class="st0" d="M524.2,283.8c-13.9,2.5-27.2-1.5-37.2-11-.5-.5-1-1.1-1.2-1.5s.4-1.6.8-1.9l7.4-6c.8-.6,2.2-.4,3,.4,6.5,6.1,15.3,9.3,24.2,7.8s10.9-4.1,10.9-9.4-4.2-7.9-8.7-8.8l-11.8-2.3c-12.3-2.4-25.7-9.7-22.9-24.5s5.5-12.1,11.5-15.5c6.7-3.8,14.4-4.3,22.1-3.4s13.6,3.7,19.2,8.2c.5.4,1,1,1.3,1.4s0,2-.6,2.5l-6.6,5.6c-1,.8-2.7.5-3.7-.3-6.7-5.5-16-7.3-24-3.8s-5.9,4.4-5.9,8.1c0,6.5,9.2,9,14.1,10l11.9,2.5c5.4,1.1,10.4,3.8,13.9,8.1,6.3,7.8,5.4,19-1.5,26.1s-10,6.8-16.3,7.9Z"/>
  <path class="st0" d="M572.6,282.7h-9.6c-1,0-1.8-1-1.8-2.1v-69c0-.7,1-1.8,1.5-1.8l11.7.3v70.9c0,.7-1.1,1.7-1.7,1.7Z"/>
  <path class="st0" d="M565.4,185.4c5.1-1.3,9.7,1.7,10.8,6.4s-1.6,9.3-6.4,10.5-9.4-1.4-10.7-6.3,1.2-9.4,6.2-10.7Z"/>
  <path class="st0" d="M476.7,240.6c-3-21.8-22.8-36.4-44.6-32.7-14.8,2.5-26.5,13.5-30.2,28.2-1.1,4.6-1.5,9.1-1.5,14v58c0,1.1,1.1,1.9,1.9,1.9h9.3c.8,0,1.9-1,1.9-1.9v-34.1c7.2,6.2,15.2,10,24.4,10.6,17.6,1,33.1-10.2,37.8-27.1,1.6-5.7,1.9-11.1,1.1-16.9ZM459.8,259.8c-5,9.2-14.9,13.6-25.4,11.7-12-2.2-20.3-11.9-20.5-23.9-.2-9.1,3.6-17.6,11.1-22.9,11.3-7.9,26.7-4.6,34,7.1,5.3,8.5,5.5,19.2.7,28Z"/>
</svg>