<?xml version="1.0" encoding="UTF-8"?>
<svg id="Ebene_1" xmlns="http://www.w3.org/2000/svg" version="1.1" viewBox="0 0 600 524.9">
  <!-- Generator: Adobe Illustrator 30.2.1, SVG Export Plug-In . SVG Version: 2.1.1 Build 1)  -->
  <defs>
    <style>
      .st0 {
        fill: #02df82;
      }
    </style>
  </defs>
  <path class="st0" d="M414.5,403.7c-12.6,13.9-41.2,36.4-57.8,45.4l-43.2,23.7c-33.5-15.2-64.6-34-92.7-57.4-18.3-15.3-32.3-34.9-42.7-56.2-3-8.3-7-16-7.6-25l-15.7-231.6c53.8-14,108.7-20.6,164.3-20,30.7.5,61,3.2,91.1,8.4,19.4,3.4,38.3,7.7,57.3,13.4l-15.9,228.1c-.5,7.3-3.1,14.1-5.7,20.8-7.2,18.8-18.1,35.5-31.5,50.4ZM312.9,452.7c25.4-13,48.7-28.2,70.5-46,16.9-13.8,31.3-30.6,40.9-50.3s8.7-19.3,9.4-29.9l14.5-205.3c-19.6-6.3-39.5-10.9-60-14.3-27.8-4.5-55.7-6.4-83.9-6.1-44.1.6-87.3,6.3-130.2,17.6l14.7,208.1c.7,10,4.9,18.9,8.6,27.9,9,18.5,21.5,34.5,37,47.9,16.1,13.5,32.8,25.6,50.8,36.4,9,5.4,17.9,10.1,27.7,13.9Z"/>
  <path class="st0" d="M313.1,445.4c-11.4-3.3-25.3-11.6-35.1-18.1-15.1-10-29.3-20.9-42.9-32.9s-18-18.2-25.1-29.1c-7.9-13.1-13.8-27.5-15-43.1l-14.4-198.2c42-11.1,85-16.7,128.5-17,26.1,0,51.6,1.8,77.3,6,19,3.1,37.5,7.4,55.8,13.3l-14.2,194.9c-2.1,29.3-20.8,56.5-42.2,75.2-20.8,18.2-47.2,36.2-72.6,48.9ZM432.8,164.7l3.1-34.3c-24.7-7.5-49.6-12.4-75-15.3-58.3-6.3-117.1-2-173.8,12.7l2.9,33.8c53.3-13.2,108.1-17.5,162.7-12.4,27.2,2.7,53.8,7.7,80.1,15.5ZM262.2,247.6v-19.7c-9.1-2.5-28.9,5.4-37,9.5s-2.4,1.9-2.4,3.9-2.7,5-4.9,3.7-2.8-1.2-4.4-.7-4-.5-4.5-1.7c-.8-1.8-.6-3.6.6-5,2.1-2.3,1.5-5.1,3.8-5.8s3.4.5,5.7.7.5-10.6,8.5-20,6.6-5.7,11.2-5.7c-6.2,5.7-10.3,12.7-11.3,21.2l7.9-2.9c1.5-6.1,4.3-11.2,9.1-14.9s5.2-3.5,8.2-3.3c-4.6,4.6-8.4,9.3-9.1,15.6l6.8-1.5c2.4-5.3,7.8-12.5,14.3-11.7-3.1,3.5-6.2,6.2-7,11h4.6c0-.1.1-4.7.1-4.7h46.9s0-64.3,0-64.3c-40.9,0-79.6,4.3-119.2,15.3l8.8,120.9h63.3s0-23.9,0-23.9c-6.7-2.3-13.2-2.2-19.9-.9-3.9,1.6-8,3-11.3,5.6l-7.4,5.7c-2.3,1.8-.3,7-5,6.6l-4.9-.4c-2.2-.2-2.8-2.3-2.3-4.2l.8-3.5c.2-.9.7-2.1,1.5-2.6,1.8-1.3,3.3.6,5-.6s-1.3-9.6,5.8-18.6c1.5-1.9,3.6-3.1,6-3.5-3,5.5-5.3,10.8-5.4,17.3l5.1-3c1.7-6,4-14.6,12-15.5-2.7,4.1-4.9,7.5-5.5,12.2,1.6-.3,3.5-.8,4.7-1.5,1.9-5.1,5.2-9.9,10.9-10.9-2.1,3.5-4,6.1-4.8,10.1h4.9c2.6-3.9,5.9-6,9.8-8.2ZM429.4,215.6l2.6-34.4h-116.9c0,0,.2,34.5.2,34.5h114.2ZM353.7,309.4c1.4-4.8,2-9.3,2.3-14.4v-73.9s-88.6,0-88.6,0v73c.1,5.1.8,9.5,2.1,14.3,3.4,11.1,10.7,20.2,21.2,25.5,23.9,11.9,54.7,2.1,63.1-24.4ZM262.3,258.3l-.2-6.7c-1.8,1.8-2.6,2.7-4.1,4.7l4.3,2ZM424.1,286.8l2.7-34.5h-65.2s0,34.6,0,34.6h62.5ZM368,344.3c-9.4,1.3-26.3,5.3-33.6,11.3-.5,1.1-.6,3.8-2.3,3.8-4.6,0-7.1.9-8.6-1.2s0-2.9.7-7.6,1.1-2.3,1.9-2.5c4-1.2,2.5,2.4,7.6-1.2l1.2-7.6c-6.8,2.9-12.9,4.5-20,5v94.1c22.3-11.7,42.6-25.6,61.6-41.5,10.4-8.7,19.4-18.4,27.5-29.2,10-14,16.4-29.6,17.6-46.8l2-28.3h-61.9c-.2,16.9-6.2,31.9-19.6,42.3l-1.2,8.9,5.7-2.1c2.6-7.6,12.3-19.2,21.2-17.2-5.1,3.6-10,7.5-12.3,14.2l9.3-1.4c3.1-5.2,8.5-10.8,14.8-10.1-3.1,2.8-5.9,5.3-7.4,9.5,2.1.2,5,.8,6.6,0,4.7-2.6,9.7-4.3,14.4-1.7-3.1.5-5.7,1.1-8.1,3.2,7.1,3.9,14.4,9.9,11.7,18.6-4.7-11.5-18.3-14.2-28.8-12.7ZM308.3,344.4c-14.4-.6-31-8.9-38.4-21.4h-68c.9,12.7,4.9,24.4,11.5,34.5h95.2s-.3-13.2-.3-13.2ZM308.7,437.6l.2-43.2h-64.3c12.8,11.3,25.9,20.5,39.5,29.5,8.1,5,15.7,9.8,24.5,13.6Z"/>
  <path class="st0" d="M221.5,203.5l-1.1,3.3c-1,3.3-4.4,4.8-7.5,3.4s-6,.2-7.8-2.9-.5-3.3.5-4.7c2.7-3.8,1.8-6.1,4.5-7.3s5,1.5,6.4.8c2.5-1.3.9-21,15.7-29.4,1.8-1,3.9-1.6,5.8-1.4-9.3,8.7-10,13.2-12.2,25.6l9.5-3.8c1.2-3.7,2.3-7.4,4.2-11,3.1-5.9,8.9-10.8,15.7-11.3-5.8,5.6-9.9,11.7-10.9,19.3l7.8-2.2c2.9-6.5,8.2-15.6,16.6-14.6-4.8,3.5-7.3,7.9-8,13.6l7,.4c3.7-4.6,8.7-8,14.8-7.1-3.2,2.6-6.5,4.8-7.8,8.7,4.1,3.1,11.3,8.8,11.5,14.6-3.4-2.6-6.5-5.4-10.6-6.8-17.7-6.3-38.9,3.9-54,13Z"/>
  <path class="st0" d="M382,380.3c-12.4-12.4-36.7-7.9-49.9,1.1-.4,1.6-.3,4.4-2.8,3.9s-4-.5-5.6-.6-1.9-1.9-1.7-2.7,2.4-5.5,3.2-6,2.6-.2,3.8.2c3,.9,2.4-6.6,7.8-13.2s4.9-4.5,8.4-4.6c-3.8,3.9-7.1,8.2-7.6,13.9,8.1-3.1,4.9-2.5,9.2-8.4,3.5-4.7,9-7.7,14.7-6.5-5,2.7-9.4,5.5-11.6,10.7l6.8-.9c3.6-4,7.5-9.3,13.9-7.7-3.2,1.7-6,3.8-8.1,7.1,6.3,3.6,9.5-5.4,16.9-.9-2.6.5-4.9,1-6.8,2.9,4.3,2.8,10.1,5.5,9.4,11.8Z"/>
  <path class="st0" d="M363.3,402.1c-3.3-1.5-6.3-3.3-10-4.1-6.4-1.3-18.9,3.5-24,7.1-.3,1-.9,2.8-1.6,3.1-1.2.5-5.8-.5-6-1.8s.3-2.2.8-3.1l1.4-2.5c.3-.6,2.3-.4,3.3-.3,1-5,2.3-11.8,9-12.9-2.1,3.4-4.6,6.4-4,10.6,1.8-.2,2.5-1.6,3.2-3.1,2-4.1,5.4-8,10.4-8.1-2.7,2.2-5.1,4.3-5.8,8,5.2,2.3,5.3-8.3,13.5-7.1-2.2,1.8-3.8,3-5,5.6,4.9,1.4,5-2.5,10.2-2.2l-3.3,3c3.3,2.5,6.8,3.5,8,7.8Z"/>
  <path class="st0" d="M332.8,321.3l-5.6,2.4c0,.7.3,2.6-.1,3.2-.7.9-2.8,1.4-4,1.5-.3-3.3,1.1-5.8,3.7-7.7s7.6-7.5,7.2-10.1-4.6-2.7-8.3-5.9c-2.3,3.8,1.6,5.6-2.8,7.3-9.9,3.8-6.2,5.9-10.9,6.1s-1.8.2-1.9.6-.2,1.2-.4,2.1c-.3,1.5-3.2,2.4-4.3,1.5.2-4.5,4-7.4,8.1-8.2s3.9-1.9,5.2-3.2c2.4-2.4,1.9-5.7-.4-7.9s-2.2-3.5-1.6-5.4c-5.2-.2-10.6,0-15.1-2.8l-2-1.2c-.5-.3-1.5.8-2.2.9-7.3,1.1-13.6-4.1-13.4.5l.2,4.3c2.7,2.7.6,5,1.9,6.3s1.6.2,2.1.4c1.5.6.8,4.1-.5,4.3-2.4.3-2.9-2.4-3.9-3.6-5.1-5.5-.2-4.3-3.2-14.2-.3-.8.2-2.8,1-2.9l9.1-1.6c-1.2-4.6-3.7,1.9-6.2-6.6s-1.7-3.3-3.5-3.1-3.4,2-3.4,3.7c-.1,5.3-3.8,2.5-2.1,8s-2.8,3.2-3.8,2.4c-1.7-1.4.2-3.5.6-5l1.2-4.6c.9-3.8,4.5-6.7,7-9.8,2.6-.5,5.1,5,8.7,4.1l1.6-6.3c.7-2.6,7.1-7.1,7.4-10.5-4-2.5-4.8,2.1-7,2.1s-.6-1.1-.5-1.6l.3-1c0-.3-.9,0-1.2,0l-1.3.2c-.4,0-1-.8-.8-1.1l1-1.2c1.6-1.9,3.3-5.2,6-5.4l3.7-.2-2.6-2.4c.7-3.1,3.8-.5,8-2.8-.2,1.3,0,2.5.9,3.1,6.1,4.5,6.1,10.6,6.1,17.7,2.3-6.6,1-13.8-4.4-18.6s-1-1.8-.7-2.4,1.3-1.5,2-1.5l.3,1.5c0,.4,1.2.7,1.6.7l5.7-.8c-.3.7-.7.9-1.3,1.3l-1.1.7c-3.4,2.2,8.5-.5,7.9.2.2,2.3-4.1.8-4.8,2.7l1.3.9c.3.2.1,1.2.2,1.9,1.2,1,6.7-1.2,6.1.2s-.7.4-4.3,2.5,0,1.6.2,1.7l1.8.3c1.3.2,2.6.4,3.7,1.2-.7.9-2,1.2-3.3,1.5-.7.4-1.2.9-.2.6,1.3.5,2.2.9,2.4,1.6l-5.1.8c.6,1.2.8,1.9.8,3l4.1,1.1c-1.9.8-2.9.7-4.8.8l1.5,2.4-4,.3c-1.2,2.8,0,1.4-3.4,3.4s.2,1.6.6,1.8c12.9,8.6,15.2.9,22.9,7.1s4.1,1.1,4.6-.8c.9-3.2-4.7-2.9-4.8-8.1-.1-5-2.1-4.6-1.2-7.7,4.3,1.6,4.4-4.7,6.7-5.1l6.4-1.1c-.2-1.5-.3-2.5-.2-3.4s1.7-1.9,2.5-1.5c-1.8,3.8.7,4.9-.2,6s-7.2.6-7.4,5.1,4.3-4,6.3-1.8c-1.2,1.2-1.9,1.9-2.9,3.1l4.7-1.5-1.1,3h1.9c.4,0,0,1.1-.2,1.4l-3.1,4.1c-.7.9-1.3,1.7-1.7,2.5l4.6-1.9-.4,3.1c.6.6,1.4,1.4,1.3,2.2-.2,1.3-1.2,2.3-2.2,2.7l-.9.4c-1.2.5,1.7,1,1.9,2.4s-1,1.8-1.7,2c-3.8,1.3-7.4-1.7-9.1-1.6s2.7,4.1-1,9.3-3.2,7.3,0,12.3-4.6,3.1-6.4,11.8Z"/>
  <path class="st0" d="M341.7,239.5l-.5-4.1c0-.4-.5-1-.8-1.2s-1.6,0-1.6.5l-.2,4.8h-2.3c0,0,0-12.6,0-12.6,2.1,0,4.5-.2,6,.3,3.1.9,1,3.9,1.2,5.6l.6,6.8h-2.4ZM339.4,232.1c1.1,0,2.4-.7,2.3-1.3s-.2-1.5-.5-1.8-1.8-.3-2.2,0c-.6.5-.4,3.1.4,3.1Z"/>
  <path class="st0" d="M320.4,232.8h3.7c0-.1,0,6.7,0,6.7l-2.3-.2c-.9.2-2.6.5-3.5.2-3-.8-2.6-7.8-2-10.3s2.4-2.9,4.2-3.1,3.6,2.2,3.5,3.8c0,.3-1.4.9-1.6.6l-1-1.6c-.2-.3-.9-.8-1.3-.8-2.3,0-2.1,8.8-.2,9.4s1.4,0,1.5-.4l.5-2-1.2-.8c-.3-.2-.3-1.3-.2-1.5Z"/>
  <path class="st0" d="M331.8,237.6c-.2-.9-2.9-1.1-3.3-.2l-.8,2c-.2.5-2,.2-2.4,0l3.2-12.3c.8-.1,2.1-.1,3.1,0l3.1,12.5h-2.1c-.4.1-.5-.7-.8-1.8ZM331.2,234.4l-1.2-4.4-1,4.4h2.3Z"/>
  <path class="st0" d="M294.5,227.4c0-.5,1.6-.7,2.3-.5v8.9c0,2.2-1.5,3.7-3.4,3.9s-4.2-.8-4.2-3v-9.9c-.1,0,2.2,0,2.2,0v9.1c0,.6,1,1.5,1.6,1.5s1.5-.9,1.5-1.6v-8.5Z"/>
  <path class="st0" d="M274.6,239.9c-1.9,0-3.5-2.4-3.2-3.7s1.3-.9,1.6-.7.7.8,1.2,1.6,1.7.7,2.2.3.7-2.4,0-2.7l-3.6-1.9c-1.3-.7-1.5-3.1-.8-4.5s2.3-2.1,4.2-2,3.1,1.9,3.1,3.3-1.4,1-1.6.7l-.9-1.3c-.3-.4-1.4-.7-1.8-.5s-.9,1-.9,1.5c0,2.5,6.1,1.6,5.4,6.3s-2.1,3.8-4.8,3.7Z"/>
  <path class="st0" d="M350,239.2c0,.6-2.3.6-2.3,0v-10.2c-.1,0-2.4-.2-2.4-.2-.5,0-.5-1.1-.3-2h7.5c.4,0,.5,2,0,2l-2.4.2v10.2Z"/>
  <path class="st0" d="M285.2,239.2c0,.6-2.3.7-2.3,0v-10.3c-.1,0-2.4-.1-2.4-.1-.5,0-.6-1.6-.3-2,2,0,5.6,0,7.5,0s.5,1.9,0,2l-2.4.2v10.2Z"/>
  <path class="st0" d="M303.4,239.2c0,.6-2.3.7-2.3.1v-10.3c-.1,0-2.4-.1-2.4-.1-.5,0-.6-1.6-.3-2.1,2,0,5.6,0,7.5,0s.5,2,0,2l-2.4.2v10.2Z"/>
  <path class="st0" d="M312.7,239.2c0,.7-2.3.6-2.3,0v-10.1c-.1,0-2.5-.1-2.5-.1-.4,0-.4-2,0-2h7.5c0,.7.3,1.9,0,1.9l-2.6.3-.2,10.1Z"/>
  <path class="st0" d="M299.6,246.4c.9-1.3,2.1-2.2,3.5-3l-.7,2.6c-.2.6-1.8.7-2.8.4Z"/>
  <path class="st0" d="M325.2,141.1h-27.2s0-5.9,0-5.9h23c.5,0,1.4-.8,1.5-1.2s-.8-1.5-1.5-1.5h-18.3c-2.4,0-4.7-1.6-5.1-4s-.3-3.8-.1-5.7,2.5-4.5,5.1-4.5h27s0,5.8,0,5.8h-24.5c-.7,0-1.6.8-1.6,1.4s.9,1.3,1.5,1.3h19.7c1.9,0,4.2,1.4,4.7,3.3.7,2.8.7,5.6-.1,8.5s-2.5,2.6-4.3,2.6Z"/>
  <path class="st0" d="M253.5,144.1c-7.6,1.5-14.6,2.4-22.1,3.1s-4.4-1.7-4.7-4c-.7-4.8-1.1-9.4-1-14.3,0-2.3,1.5-4.4,3.8-4.8,7.3-1.5,14.5-2.7,22-3.4s4,.9,4.9,2.5c1.1,5.8,1.5,11.3.8,17.3s-2,3.2-3.8,3.6ZM251.2,138.1c.5-4,.6-7.2-.7-10.5-6.6.6-12.4,1.4-18.6,2.8-.4,3.7,0,6.7.9,10.2,6.4-.4,12.1-1.2,18.4-2.5Z"/>
  <path class="st0" d="M288.1,134.8c0-1.2-1.3-2.3-2.5-2.2l-17.4,1.3.2,8.8-5.6.5-1.2-23.1,26.8-2c3-.2,5.1,2.5,5.2,5.2.2,2.4-.3,4.5-1.4,6.4.6,1,1.6,2.7,1.6,3.8v7.5c.1,0-5.6.2-5.6.2v-6.5ZM267.9,128.3l16.5-1c.7,0,1.6-1.1,1.6-1.8s-.8-1.7-1.4-1.6l-17,1.3.3,3.2Z"/>
  <path class="st0" d="M428.9,148.2l-17.9-4.3c-.3,1.1-.4,2.3-.5,3.8l18.1,4.6-.6,5.3-24.5-5.8,2.2-23.8,24.7,6-.7,5.5-18.2-4.4-.3,4,18.1,4.4-.4,4.7Z"/>
  <path class="st0" d="M342.9,136.1l21.4,2-.4,6.1-25.9-2.5c-1.8-.2-3.4-2.3-3.5-4,0-4.9.1-9.4.7-14.2s2.6-4.7,5.5-4.5c8.3.4,16.1,1.2,24.4,2.3l-.4,6-20.9-2.2c-.7,0-1.9.3-2.3.6s-.7,1.3-.8,1.8l-.3,6.4c0,1,1.2,2.2,2.4,2.3Z"/>
  <polygon class="st0" points="399.7 150.4 393.5 149.3 394.1 140.4 375.5 137.3 374.6 146.1 368.5 145.2 370 121.9 376.1 122.7 375.7 131.7 394.5 134.7 395.3 125.8 401.6 127 399.7 150.4"/>
  <path class="st0" d="M199.2,145.4l.8,9.1-5.7,1.5-2-23.7,23.2-5.5c2.8-.7,5.1,1.3,6,4,.7,2.8.7,8-2.7,9.3-6.3,2.3-12.8,3.3-19.6,5.3ZM198.7,140.1l16-3.9c.7-.4,1.3-1.1,1.5-1.6s-.7-2-1.4-1.9l-16.8,4c-.1,1.4,0,2.6.6,3.4Z"/>
</svg>