<?xml version="1.0" encoding="UTF-8"?>
<svg id="Ebene_1" xmlns="http://www.w3.org/2000/svg" version="1.1" viewBox="0 0 600 524.9">
  <!-- Generator: Adobe Illustrator 30.2.1, SVG Export Plug-In . SVG Version: 2.1.1 Build 1)  -->
  <defs>
    <style>
      .st0 {
        fill: #02df82;
      }
    </style>
  </defs>
  <path class="st0" d="M508.9,320.7l-.2,1.2h-110.8s-28.5-42.4-28.5-42.4l-29.5,42.4h-104.4s-.2-28.4-.2-28.4c-8.7,21.9-34.2,29.1-55.4,31.2-17.2,1.7-34.2,1.7-51.2-.6-8.7-1.2-16.7-3.2-24.4-7-18.2-8.8-20.9-25.5-21.3-44.1h55.1c.2,10.6,2.8,21.8,14.7,24,8.8,1.6,25.1.3,28.3-9.9s1.1-8.9-2-12.1-5.7-3.8-8.9-5c-21.9-7.9-50.5-12.5-70.1-24.3-6.3-3.8-10.7-9.2-13.1-16.2-2.8-8.3-3.1-16.9-1.6-25.6,4.1-22.9,24.8-32.5,45.8-35.9,17.6-2.8,35.3-3.1,53.1-.9,8.3,1,15.9,3,23.3,6.5,17.1,8.2,22.3,24.3,22.4,42.6h-52.9c-.4-3.9-.9-7.6-2.2-11.3-2.6-7.2-9.3-11.5-16.9-11s-14.7,2-16.7,9.1c-1,3.8-.8,8,2,10.8,8.6,8.6,53.3,14.2,77.4,28.5,6.7,4,11.3,9.7,14.5,16.9v-34.4c18.7.6,36.2-.1,54.2-2.7v87.1c0,0,44-65.2,44-65.2l-20.6-27c16.9-4.8,32.7-12,46.5-22.9l13.3,16.7,25.2-38h143.4s0,43.3,0,43.3h-32.2c0,0,0,104.4,0,104.4ZM455.2,312.7v-96.3c0,0-26.3,0-26.3,0l-20.2,28.4,46.5,67.9Z"/>
  <path class="st0" d="M235.4,216.4v-43.3c11.5.8,22.2.9,33.3,0,9.9-.9,19.1-2.6,28.5-5.6,7.5-2.6,14.4-5.8,20.8-10.4,5.8-4.3,10.5-9.4,14.1-15.9h56.2c-10.3,30.7-34.7,51.9-64.4,63.4-13.8,5.3-27.7,8.5-42.4,10.4-15.3,1.9-30.2,2.2-46.1,1.5Z"/>
  <path class="st0" d="M111.9,356.1h-14.1s-2.5,4.8-2.5,4.8h-7.3c0-.1,12.9-24.3,12.9-24.3h8.5s12.6,24.1,12.6,24.1l-7.8.3-2.3-4.9ZM109.6,351.5l-4.7-10-4.9,10h9.6Z"/>
  <path class="st0" d="M257.5,367.4c-4.1.9-16.8,2.1-16.4-5.3h6.6c1.3,3.5,7.1,2.4,8.3.8s1.2-3.2.9-5.1c-2.1,1.8-4.5,2.8-7.4,2.9s-7.4-2.1-8.6-5.3-.6-8.1,2.8-10.3c4.2-2.8,10.2-2.2,13.4,1.4l.6-2.5h6c0,0-.1,16-.1,16,0,3.6-2.6,6.7-6,7.5ZM255.1,348.4c-1.9-1.2-4.5-1.2-6.2,0s-2.2,3.7-1.4,5.6,2.7,2.7,4.8,2.6,3.9-1.2,4.5-3,.2-4-1.7-5.2Z"/>
  <path class="st0" d="M140.4,351.3l9.1,9.6-8.7.2-8.2-8.9-.3,8.9h-6.4s0-24.3,0-24.3h6.4s.2,14.3.2,14.3l7.9-6.8c2.2-.3,5.2-.1,7.9,0l-7.9,7Z"/>
  <path class="st0" d="M437.9,360.9v-9.4c-.2-2.5-2.3-4.1-4.7-3.8-2.5.3-4.4,2.5-4.5,5.1v8.2c0,0-6.6,0-6.6,0v-24.5s6.4,0,6.4,0l.2,10c2.6-2.8,5.3-3.5,8.6-3.1s6.8,3,6.8,7v10.5s-6.3,0-6.3,0Z"/>
  <path class="st0" d="M283.6,355.8h6.4c-.8,6.8-11,6.3-15.5,5.1s-6-4.2-6-8.1,1.8-7,5.3-8.4,8.9-1.6,12.7.6,4.1,5.5,3.9,9h-15.2c0,2.5,1.6,3.6,3.3,3.9s3.5-.2,5-2.2ZM283.8,350.3c-.9-3.6-3-3.4-5.3-3.3s-3.1,1.5-3,3.5c3.1,0,5.7,0,8.3-.2Z"/>
  <path class="st0" d="M200.7,355.8h6.5c-.8,6.7-10.6,6.3-15.2,5.2s-6.3-4.2-6.3-8.2,2-7.3,5.9-8.6,8.7-1.3,12.3.9,3.9,5.6,3.8,9h-15.3c.1,2.5,1.6,3.5,3.3,3.9s3.8-.2,5.1-2.2ZM200.9,350.4c-.6-3.4-2.3-3.3-4.1-3.4s-4.2,1.2-4,3.6l8.1-.2Z"/>
  <path class="st0" d="M454.6,361.3c-2.9-.4-4.9-2.2-5.2-4.6-.8-7.5,10-6.4,14.8-6.7,0-.6-.2-1.8-.5-2.2-.9-1.2-5.2-2-6.7,1h-6.3c.2-6.5,11-6.1,15.6-4.9s4.3,3.1,4.4,5.8v11c0,0-5.8,0-5.8,0l-.7-2.3c-2.3,2.8-5.9,3.3-9.6,2.7ZM464.3,353.5c-2.8-.1-8.6-.1-7.8,2.8s1.4,1.5,2.1,1.5c3,.1,5.7-.9,5.7-4.3Z"/>
  <path class="st0" d="M334.4,355.7h6.7c-.9,6.7-10.7,6.3-15.3,5.2s-6.3-4.2-6.3-8.2,1.9-7.1,5.6-8.5,8.6-1.5,12.4.6c3.2,1.8,4.1,5.2,4.1,9.1h-15.3c0,2.6,1.6,3.6,3.3,3.9s3.8.2,4.8-2.2ZM334.8,350.3c-.9-3.8-3-3.5-5.3-3.3s-3,1.5-2.9,3.5l8.2-.2Z"/>
  <path class="st0" d="M223.9,347.7c-2.4.3-4.3,2.4-4.4,4.7l-.2,8.6h-6.4s0-17,0-17h6c0,0,.5,2.6.5,2.6,2.5-2.8,5.6-3.7,9.3-3.1s6.1,2.8,6.1,6.2v11.3c.1,0-6.3,0-6.3,0v-9.6c-.2-2.3-2.2-3.9-4.7-3.6Z"/>
  <path class="st0" d="M314.9,355.9c0,6.7-11.1,6.2-15.5,5.1s-4.1-2.5-4-5.1h6.2c.5,2.4,2.6,2.6,4.6,2.3s1.7-.9,1.9-1.4-.9-1.8-1.5-1.9l-6.6-1.1c-2.3-.4-4.1-2-4.2-4.1-.5-7.1,10.6-6.7,15.2-5.4s3.5,2.3,3.5,4.8h-6.2c-.6-2.1-2.5-2.4-4.3-1.9s-1.2.8-1.3,1.2.8,1.4,1.4,1.6l7.7,1.5c2.3.4,3.4,2.6,3.4,4.6Z"/>
  <path class="st0" d="M387.5,360.6c-4.2,1.4-16.1,2.5-16.1-4.7h6.2c.6,2.2,2.7,2.7,4.8,2.2s1.5-.9,1.7-1.3-.7-1.8-1.4-1.9l-6.6-1.1c-2.4-.4-4.2-1.9-4.4-4.1-.6-7,10.2-6.7,14.8-5.5s3.8,2.3,3.8,4.9h-6.2c-.7-1.9-2.5-2.4-4.2-2s-1.3.8-1.5,1.2.7,1.5,1.2,1.6l6.7,1.2c2.5.4,4.2,1.8,4.5,4s-.6,4.7-3.4,5.6Z"/>
  <path class="st0" d="M403.4,356.5c.9,1.2,2.8,1.6,4,1.4s2.6-1.3,3.1-3.2h6.6c-.2,7.1-10.8,7.9-16.3,6s-5.7-4.5-5.6-8.4c0-3.7,2-6.7,5.6-7.9,5.2-1.8,15.7-1.6,16.2,5.6-2.1,0-4.4.1-6.2-.1-1-1-2-2.7-3.3-2.7s-3.2.4-4.1,1.6c-1.6,2.2-1.7,5.4,0,7.8Z"/>
  <path class="st0" d="M485.3,348.2v12.8c0,0-6.5,0-6.5,0v-12.8c-.1,0-4-.2-4-.2v-3.9c0,0,3.9-.4,3.9-.4-.1-3,.8-6,3.8-6.8s5.3-.6,8.1-.5v3.8c.1,0-2.4,0-2.4,0-.7,0-2,.6-2.4,1.1s-.5,2.2-.2,2.5l4.7.2v3.9s-5,.1-5,.1Z"/>
  <path class="st0" d="M509.3,361c-4.1.9-11.8.9-11.9-4.8l-.2-7.9-4.1-.2v-3.9s4.1-.2,4.1-.2v-3.3c0,0,6.4-2.3,6.4-2.3l.2,5.7h5.3c0,0,.1,4.1.1,4.1l-5.3.2c-.2,2.4-.6,5.4.4,7.8s3.1,1,4.8.9v4Z"/>
  <path class="st0" d="M167.4,361c-4.2.8-11.8.8-11.9-4.9v-7.9c-.1,0-4.2-.2-4.2-.2v-3.9s4.1-.2,4.1-.2v-3.4c0,0,6.4-2.3,6.4-2.3l.2,5.7h5.3c0,0,.1,4.1.1,4.1h-5.3c-.1,2.5-.5,5.5.4,7.9s3.1,1.1,4.8,1l.2,4.1Z"/>
  <polygon class="st0" points="365.9 360.9 359.4 361 359.4 336.7 365.9 336.6 365.9 360.9"/>
  <polygon class="st0" points="353.2 360.9 346.7 361 346.7 336.7 353.2 336.6 353.2 360.9"/>
  <path class="st0" d="M180.2,360.7c-2,.3-4.2.3-6.5.2v-16.9s6.4,0,6.4,0v16.7Z"/>
  <polygon class="st0" points="180.5 341.2 173.5 341.2 173.4 336.5 180.4 336.5 180.5 341.2"/>
</svg>