<?xml version="1.0" encoding="UTF-8"?>
<svg id="Ebene_1" xmlns="http://www.w3.org/2000/svg" version="1.1" viewBox="0 0 600 524.9">
  <!-- Generator: Adobe Illustrator 30.2.1, SVG Export Plug-In . SVG Version: 2.1.1 Build 1)  -->
  <defs>
    <style>
      .st0 {
        fill: #02df82;
      }
    </style>
  </defs>
  <path class="st0" d="M390,310.5l-61.5-58.2v42.8c-.1,7.3,11.7,4.8,17.1,5.3v10.2s-50.3,0-50.3,0v-10.2c6-.6,17.1,2.3,17.1-5.8v-51.3c0-3.2-2.1-5.4-5.4-5.5l-11.7-.2v-10.3c0,0,43.6,0,43.6,0l52.7,49.4.3-33.9c0-2.9-2.2-4.4-4.8-5.1l-11.5-.2v-10.3s48.3,0,48.3,0l.2,10.3-10.2.3c-3.1.1-5,2.4-5,5.4v67.2s-19,0-19,0Z"/>
  <path class="st0" d="M141,303c-4.2,3-8.3,5-13.2,6.3-21.3,5.6-43.9,4-64-5-1.5-.7-2.9-1.6-4,.4s-1.2,3.3-1.6,5.3h-13.6s0-30.9,0-30.9h12.4c2.2,8.3,12.9,15.8,20.8,18.4,12.8,4.1,26.5,4.7,39.7,1.6,5.1-1.2,10.1-4.8,8.8-10.5s-11.4-6.6-16-7.4l-38.2-6.3c-8.7-1.4-21.5-5.2-25.7-13.5-4.7-9.5-1.6-20.4,6.7-26.7,13.7-10.5,36.6-11.6,53.1-9.7,8,.9,15.2,3.5,22.2,7.5s3,0,3.2-1.1l.8-4.5h13.1s0,30,0,30h-12.2c-.8-2.8-1.8-5.3-3.8-7.3s-4.8-4.8-7.7-6.6c-13.4-8.3-29.8-10.1-44.8-5.5s-10.1,4.6-9.4,9.5,8,6.9,12.1,7.8c15,3.2,28.8,3.5,44.3,7.1s21.7,6.4,25.1,15.7,0,19.8-8.1,25.6Z"/>
  <path class="st0" d="M291.3,271.2c-3.9,39.8-54.1,44.6-84.5,38.7-21.9-4.2-40.8-18-40.7-42.2s16.2-36,36.4-41.1c16.4-4.1,33.6-4.4,50-.6s41.2,20.4,38.7,45.1ZM261,280.2c2.5-8.5,2.3-17.5-.5-26-6.3-19.5-28.4-23.4-45.4-18-9.8,3.1-16.9,10.6-19.3,20.6-4.1,16.8.9,37.1,19.8,42.5,16.9,4.8,39.7.8,45.4-19.1Z"/>
  <path class="st0" d="M547.2,237.4c-7.5,0-10.6,7-15.3,12.2l-25.5,27.7v16.9c0,2.8,1.9,5.2,5,5.2l12.7.2v10.3s-60.8,0-60.8,0v-10.3s12.4-.2,12.4-.2c2.8,0,5.3-2.1,5.3-4.8v-17.3s-31.3-34.8-31.3-34.8c-2.6-2.8-4.5-4.7-8.7-4.9l-7.5-.3v-10.7s55,0,55,0v10.6s-7.3.4-7.3.4c-.6,0-1.7.8-2,1.3s.1,2.2.6,2.7l16.5,18c1.4,1.5,3.8,1.4,5.3-.2l17-18.2c.5-.5.7-2,.6-2.5s-1.5-1.2-2.1-1.2l-6.3-.2v-10.7c0,0,43.5,0,43.5,0v10.7s-7.1,0-7.1,0Z"/>
  <path class="st0" d="M545.3,295.8c4.6-1.3,8.8,1.1,9.9,5.4s-1.2,8.3-5.4,9.4-8.3-.9-9.6-5.2.7-8.4,5.1-9.6ZM545.3,296.8c-3.9,1.4-5.5,5.6-4,9.1s5.2,5,8.6,3.7,5.4-5.1,4.1-8.7-4.8-5.5-8.7-4.2Z"/>
  <path class="st0" d="M551.2,307.7c-2.6-.2-2.4-5.4-5.2-3.8-.2,1.4-.1,2.7-.8,4.2-.5-3.3-.4-5.9-.3-9.1h4.5c1.2,0,2.3,1,2.4,2.1s-1.2,2.2-2.4,2.7l2,3.9ZM549.5,302.5c.4,0,1.1-1,1-1.5s-.8-1.3-1.3-1.3l-3.5-.4v3.4c.1,0,3.7-.2,3.7-.2Z"/>
</svg>