<?xml version="1.0" encoding="UTF-8"?>
<svg id="Ebene_1" xmlns="http://www.w3.org/2000/svg" version="1.1" viewBox="0 0 600 524.9">
  <!-- Generator: Adobe Illustrator 30.2.1, SVG Export Plug-In . SVG Version: 2.1.1 Build 1)  -->
  <defs>
    <style>
      .st0 {
        fill: #02df82;
      }
    </style>
  </defs>
  <path class="st0" d="M279.6,73.3c-95.6,8.1-166.5,91.2-161.9,185.4,4.6,94.6,83.9,169.4,178.6,168.6,94.3-.8,173.2-76.5,175.7-172.6,2.7-105.9-87-190.4-192.4-181.4ZM396.2,375.5c-62.3,50.6-152.3,46.7-210.3-6.4-69.5-63.7-69.9-173.4-.7-237.5,55.5-51.5,141.3-57.7,203.7-12.7,40.2,29,65.3,75.2,67.2,124.9,1.9,51-20.3,99.7-59.9,131.7Z"/>
  <path class="st0" d="M338.4,304l-22.4-49.6h-42.3s-22.4,49.6-22.4,49.6l-57.8-128.3c9.5-12.7,20.8-23.5,34-31.7l46.2,102.6h42.4s46.1-102.6,46.1-102.6c13.4,8.4,24.8,19.4,34.1,31.9l-57.9,128.1Z"/>
  <path class="st0" d="M238.8,362.4c-53.4-26.6-80.7-87.2-65.2-144.8l65.2,144.8Z"/>
  <path class="st0" d="M350.9,362.4l65.3-144.6c15.3,57.6-11.9,117.9-65.3,144.6Z"/>
  <path class="st0" d="M294.8,207.6l-35.3-78.2c23-6.7,47.1-6.8,70.6,0l-35.3,78.2Z"/>
  <path class="st0" d="M329.5,370.7c-22.4,6.5-46.2,6.6-69.4,0l34.7-77,34.7,77Z"/>
</svg>