<?xml version="1.0" encoding="UTF-8"?>
<svg id="Ebene_1" xmlns="http://www.w3.org/2000/svg" xmlns:xlink="http://www.w3.org/1999/xlink" version="1.1" viewBox="0 0 1920 873.3">
  <!-- Generator: Adobe Illustrator 30.2.1, SVG Export Plug-In . SVG Version: 2.1.1 Build 1)  -->
  <defs>
    <style>
      .st0 {
        fill: none;
      }

      .st1 {
        fill: #02df82;
      }

      .st2 {
        clip-path: url(#clippath);
      }
    </style>
    <clipPath id="clippath">
      <rect class="st0" x="22.4" y="9.3" width="1884" height="856.3"/>
    </clipPath>
  </defs>
  <g class="st2">
    <path class="st1" d="M1075.9,530.9h62.8v-198.2h72.2v-51.3h-207.6v51.3h72.6v198.2ZM902.5,376c-31.4-8.7-47.1-13.6-47.1-29s14.7-19.9,33.5-19.9,40.1,11.2,42.9,30h62.8c-1.7-50.6-47.5-81.3-105.7-81.3s-96.3,21.3-96.3,75.7,37.7,64.6,80.6,77.1c35.2,10.5,62.1,15,62.1,34.9s-12.6,21.6-35.9,21.6-51-9.8-51-36.3h-62.8c0,55.5,48.9,87.6,113.8,87.6s98.8-31.1,98.8-78.9-48.5-68.8-95.6-81.7M649.8,485.2c-45.7,0-60.7-35.6-60.7-79.2s15-78.9,60.7-78.9,60.7,35.6,60.7,78.9-15.4,79.2-60.7,79.2M649.8,536.5c78.5,0,123.5-55.1,123.5-130.5s-45-130.2-123.5-130.2-123.5,55.1-123.5,130.2,44.3,130.5,123.5,130.5M289.3,281.4v249.5h62.8v-100.5h85.5v100.5h62.8v-249.5h-62.8v97.7h-85.5v-97.7h-62.8ZM192.7,364.1h62.8c-5.9-47.8-44-88.3-112.4-88.3s-120.7,55.1-120.7,130.2,42.2,130.5,113.1,130.5,60-14.7,71.9-37.3h.7l6.3,31.8h45v-132.6h-112.4v45.4h47.5c-.7,24.1-20.9,41.5-49.9,41.5-43.6,0-59.3-32.1-59.3-79.2s15.7-78.9,56.9-78.9,46.1,19.9,50.6,37"/>
    <path class="st1" d="M1331.4,661.8h42.6c25.1,0,38.4,9.1,38.4,30s-13.3,30-38.4,30h-42.6v-60ZM1268.6,860h62.8v-86.9h39.1c53.4,0,30.7,76.4,42.9,86.9h65.3v-3.5c-14.3-4.2,8.4-100.9-54.1-111.7v-.7c31.1-7,50.6-27.9,50.6-61.1,0-47.1-33.5-72.6-89-72.6h-117.6v249.5ZM1112.2,706.1v-44.3h126.3v-51.3h-189.1v249.5h191.2v-51.3h-128.4v-51.3h108.9v-51.3h-108.9ZM804.1,610.5v249.5h62.8v-100.5h85.5v100.5h62.8v-249.5h-62.8v97.7h-85.5v-97.7h-62.8ZM719.3,703.3h62.8c-5.9-57.9-42.2-98.4-110.3-98.4s-121.1,55.1-121.1,130.2,42.2,130.5,121.1,130.5,104.7-40.5,110.3-99.1h-62.8c-4.2,27.9-16.8,47.8-50.3,47.8s-55.5-32.1-55.5-79.2,14-78.9,55.5-78.9,45.7,19.9,50.3,47.1M413.2,860h62.8v-198.2h72.2v-51.3h-207.6v51.3h72.6v198.2ZM260,860h62.8v-249.5h-62.8v249.5ZM95,661.8h45c21.6,0,34.9,7.3,34.9,28.3s-13.3,28.3-34.9,28.3h-45v-56.5ZM32.2,860h62.8v-90.4h58.3c52,0,84.5-27.2,84.5-79.6s-32.5-79.6-84.5-79.6H32.2v249.5Z"/>
    <path class="st1" d="M1779.6,123.1c0,14.1-11.1,25.5-24.8,25.5s-24.8-11.4-24.8-25.5,11.1-25.5,24.8-25.5,24.8,11.4,24.8,25.5"/>
    <path class="st1" d="M1855.1,132.3c0,14.1-11.1,25.5-24.8,25.5s-24.8-11.4-24.8-25.5,11.1-25.5,24.8-25.5,24.8,11.4,24.8,25.5"/>
    <path class="st1" d="M1870.2,179.2c-15.8,60.7-58.4,129.1-111.1,178.3-57.8,54-118.3,78.6-170.4,69.2-1.7-.3-3.4-.6-5.1-.9,23-8.8,45.5-22.4,67.1-40.3,6.3-5.2,7.3-14.7,2.2-21.1-5.1-6.5-14.3-7.5-20.6-2.2-38.5,32-78.5,47.4-118.8,46-13.9-.5-25.4-3-33.9-5.6,52.7-19.5,83.2-41,84.8-42.1,6.6-4.7,8.3-14.1,3.7-20.9-4.6-6.8-13.7-8.5-20.4-3.8-.5.3-48.6,34.1-127.8,53.9-22.2,3.9-41.8,9.1-59.1,15.1-13.9,4.1-27.6,9.9-41.3,17.6-15.8,8.2-28.6,16.7-38.9,24.7,5.8-10.3,12.7-21.3,21.1-32.5,51.1-68.3,128.2-111.6,229-128.7,56.8-9.6,74.1-23.6,97.6-51,27.3-31.8,45-67.9,60.7-99.8,27.4-55.8,46.9-95.6,99.9-95.6s20.3,1.3,32.3,4.1c66.7,25.7,59.4,96,49,135.8M1899.3,84.4c-10.9-32.7-34.8-56.7-68.9-69.5-.6-.2-1.2-.4-1.8-.5-23.9-5.6-44.4-6.5-62.9-2.8-17.4,3.5-32.5,11-46.2,22.9-24.3,21.1-40,53.2-56.6,87.1-15.6,31.8-31.7,64.6-56.5,93.5-18.7,21.8-29.9,32.7-80.4,41.2-59.8,10.1-112.7,29.5-157.4,57.5-36,22.6-66.6,50.8-91.1,83.9-41.9,56.6-51.2,107.7-51.5,109.9-1.1,6.6,2.1,13.2,8,16.1,2.1,1,4.3,1.5,6.4,1.5,4,0,8-1.7,10.9-4.9,28.9-32.9,54.5-55.1,78.8-69.6,11.7-6.2,25.7-12.4,42.1-18,44.1-11.7,88.4-2.1,146.8,10.6,20.3,4.4,41.3,9,64.7,13.2,32.2,5.8,66.5,1.1,101.9-13.9,31.7-13.4,63.1-34.5,93.1-62.7,27.9-26.1,53.7-57.6,74.5-91.1,21-33.7,36.6-68.9,45.1-101.7,10.2-39.2,10.5-73.7.8-102.6"/>
  </g>
</svg>